# Blender 4.2.1 LTS
# www.blender.org
mtllib 1er piso.mtl
o Pared_cocina
v -15.560631 8.778898 -104.690285
v -13.560630 8.778898 -104.690285
v -15.560631 8.778911 -29.000376
v -13.560630 8.778911 -27.000378
v -15.560631 65.581474 -104.690292
v -13.560630 65.581474 -104.690292
v -15.560533 65.605072 -29.000483
v -13.560728 65.605072 -27.000288
v -101.244087 8.778911 -27.000378
v -101.244087 8.778911 -29.000376
v -101.244087 65.605072 -27.000387
v -101.244087 65.605072 -29.000385
vn -0.3015 -0.9045 -0.3015
vn -0.5774 -0.5774 -0.5774
vn 0.5774 -0.5774 -0.5774
vn 0.5773 -0.5774 0.5773
vn -0.5773 0.5773 -0.5775
vn 0.5774 0.5772 -0.5774
vn -0.3014 0.9045 -0.3017
vn 0.5773 0.5774 0.5773
vn -0.5774 -0.5774 0.5774
vn -0.5774 0.5774 0.5774
vn -0.5774 0.5773 -0.5774
vn -0.5774 -0.5774 -0.5773
vt 0.000083 0.458697
vt 0.000083 0.011890
vt 0.011890 0.011890
vt 0.011890 0.470503
vt 0.011890 0.000083
vt 0.347203 0.000083
vt 0.347203 0.011890
vt 0.359009 0.011886
vt 0.359144 0.458693
vt 0.347342 0.470504
vt 0.011890 0.988110
vt 0.347342 0.988110
vt 0.347342 0.999917
vt 0.011890 0.999917
vt 0.359149 0.482309
vt 0.359148 0.988110
vt 0.000083 0.988110
vt 0.000083 0.482310
vt 0.694322 0.011681
vt 0.694596 0.458488
vt 0.359453 0.964494
vt 0.694906 0.964289
s 1
f 3/1/1 1/2/2 2/3/3 4/4/4
f 1/5/2 5/6/5 6/7/6 2/3/3
f 5/8/5 7/9/7 8/10/8 6/7/6
f 9/11/9 11/12/10 12/13/11 10/14/12
f 11/12/10 8/10/8 7/15/7 12/16/11
f 4/4/4 9/11/9 10/17/12 3/18/1
f 1/19/2 3/20/1 7/9/7 5/8/5
f 2/3/3 6/7/6 8/10/8 4/4/4
f 12/21/11 7/9/7 3/20/1 10/22/12
f 11/12/10 9/11/9 4/4/4 8/10/8
