# Blender 4.2.1 LTS
# www.blender.org
mtllib atico.mtl
o Piso_Atico
v -73.176788 114.552650 72.792480
v 75.711311 114.552650 72.792480
v -73.176788 114.552620 -104.690300
v 75.711311 114.552620 -104.690300
v -73.176788 114.552635 14.445877
v 75.711311 114.552635 14.445877
v -101.699364 114.552620 -104.690300
v -101.699364 114.552635 14.445877
v 95.953125 114.552620 -104.690300
v 95.953125 114.552635 14.445877
v -14.560631 114.552650 72.792480
v -14.560631 114.552620 -104.690300
v -73.176788 114.552650 100.800499
v -14.560631 114.552650 100.800499
v -14.357677 114.552635 14.445877
v -73.176788 112.552658 72.792480
v 75.711311 112.552658 72.792480
v -73.176788 112.552628 -104.690300
v 75.711311 112.552628 -104.690300
v -73.176788 112.552643 14.445877
v 75.711311 112.552643 14.445877
v -101.699364 112.552628 -104.690300
v -101.699364 112.552643 14.445877
v 95.953125 112.552628 -104.690300
v 95.953125 112.552643 14.445877
v -14.560631 112.552658 72.792480
v -14.560631 112.552628 -104.690300
v -73.176788 112.552658 100.800499
v -14.560631 112.552658 100.800499
v -14.357677 112.552643 14.445877
vn -0.5774 0.5774 0.5774
vn -0.3015 0.9045 0.3015
vn -0.0000 0.7071 -0.7071
vn -0.5774 0.5774 -0.5774
vn 0.3015 0.9045 0.3015
vn -0.0000 1.0000 -0.0000
vn 0.5774 0.5774 0.5774
vn -0.7071 0.7071 -0.0000
vn 0.5774 0.5774 -0.5774
vn -0.5774 -0.5774 0.5774
vn -0.5774 -0.5774 -0.5774
vn -0.0000 -0.7071 -0.7071
vn -0.3015 -0.9045 0.3015
vn 0.3015 -0.9045 0.3015
vn 0.5774 -0.5774 0.5774
vn -0.0000 -1.0000 -0.0000
vn -0.7071 -0.7071 -0.0000
vn 0.5774 -0.5774 -0.5774
vt 0.004889 0.208133
vt 0.073611 0.208133
vt 0.073611 0.495181
vt 0.004888 0.495181
vt 0.432343 0.208133
vt 0.215330 0.208133
vt 0.214841 0.067552
vt 0.432344 0.067552
vt 0.073611 0.067552
vt 0.073611 0.000070
vt 0.214841 0.000070
vt 0.214841 0.495181
vt 0.432343 0.495181
vt 0.481114 0.208133
vt 0.481114 0.495181
vt 0.004888 0.787048
vt 0.004889 0.500000
vt 0.073611 0.500000
vt 0.073611 0.787048
vt 0.432343 0.787048
vt 0.432343 0.927629
vt 0.214841 0.927629
vt 0.215330 0.787048
vt 0.214841 0.995111
vt 0.073611 0.995111
vt 0.073611 0.927629
vt 0.214841 0.500000
vt 0.432343 0.500000
vt 0.481114 0.500000
vt 0.481114 0.787048
vt 0.068792 0.927629
vt 0.068792 0.787048
vt 0.437162 0.787048
vt 0.437162 0.927629
vt 0.000070 0.787048
vt 0.000070 0.500000
vt 0.073611 0.791867
vt 0.004889 0.791867
vt 0.485933 0.500000
vt 0.485933 0.787048
vt 0.481114 0.791867
vt 0.432343 0.791867
vt 0.068792 0.995111
vt 0.219660 0.927629
vt 0.219660 0.995111
vt 0.432343 0.932448
vt 0.214841 0.932447
vt 0.214841 0.999930
vt 0.073611 0.999930
s 1
f 8/1/1 5/2/2 3/3/3 7/4/4
f 6/5/5 15/6/6 11/7/5 2/8/7
f 11/7/5 1/9/8 13/10/1 14/11/7
f 11/7/5 15/6/6 5/2/2 1/9/8
f 12/12/3 15/6/6 6/5/5 4/13/3
f 3/3/3 5/2/2 15/6/6 12/12/3
f 4/13/3 6/5/5 10/14/7 9/15/9
f 23/16/10 22/17/11 18/18/12 20/19/13
f 21/20/14 17/21/15 26/22/14 30/23/16
f 26/22/14 29/24/15 28/25/10 16/26/17
f 26/22/14 16/26/17 20/19/13 30/23/16
f 27/27/12 19/28/12 21/20/14 30/23/16
f 18/18/12 27/27/12 30/23/16 20/19/13
f 19/28/12 24/29/18 25/30/15 21/20/14
f 1/31/8 5/32/2 20/19/13 16/26/17
f 3/3/3 12/12/3 27/27/12 18/18/12
f 6/33/5 2/34/7 17/21/15 21/20/14
f 8/35/1 7/36/4 22/17/11 23/16/10
f 7/4/4 3/3/3 18/18/12 22/17/11
f 5/37/2 8/38/1 23/16/10 20/19/13
f 9/39/9 10/40/7 25/30/15 24/29/18
f 10/41/7 6/42/5 21/20/14 25/30/15
f 4/13/3 9/15/9 24/29/18 19/28/12
f 13/43/1 1/31/8 16/26/17 28/25/10
f 11/44/5 14/45/7 29/24/15 26/22/14
f 2/46/7 11/47/5 26/22/14 17/21/15
f 12/12/3 4/13/3 19/28/12 27/27/12
f 14/48/7 13/49/1 28/25/10 29/24/15
