# Blender 4.2.1 LTS
# www.blender.org
mtllib fachada.mtl
o Paredes
v -74.176788 8.778927 72.792496
v -72.176788 9.778927 72.792496
v -72.176788 7.778927 72.792496
v 76.711311 8.778928 73.792496
v 74.711311 9.778927 71.792496
v 74.711311 7.778927 71.792496
v -73.176788 8.778898 -105.690292
v -73.176788 9.778898 -103.690277
v -73.176788 7.778898 -103.690277
v 75.711311 9.778898 -103.690277
v 75.711311 7.778898 -103.690277
v 75.711311 8.778898 -105.690292
v -74.176788 8.778918 15.445894
v -72.722244 10.142554 13.991348
v -72.176788 7.778918 13.445893
v 75.256767 10.142554 13.991348
v 74.711311 7.778918 13.445893
v 76.711311 8.778918 15.445894
v -102.699364 8.778898 -105.690292
v -100.699356 9.778898 -103.690277
v -100.699356 7.778898 -103.690277
v -102.699364 8.778918 15.445894
v -100.699356 9.778917 13.445893
v -100.699356 7.778918 13.445893
v 96.953125 8.778898 -105.690292
v 94.953117 9.778898 -103.690277
v 94.953117 7.778898 -103.690277
v 96.953125 8.778918 15.445894
v 94.953117 9.778917 13.445893
v 94.953117 7.778917 13.445893
v -15.015175 10.142564 72.337952
v -15.560631 7.778927 71.792496
v -13.560630 8.778928 73.792496
v -14.560631 8.778898 -105.690292
v -14.560631 9.778898 -103.690277
v -14.560631 7.778898 -103.690277
v -14.560631 9.778917 14.445894
v -14.560631 7.778918 14.445894
v -74.176788 8.778932 101.800522
v -72.176788 9.778932 99.800507
v -72.176788 7.778933 99.800507
v -13.560630 8.778932 101.800522
v -15.560631 9.778932 99.800507
v -15.560631 7.778932 99.800507
v -74.176788 114.738419 72.792480
v -72.176788 114.738419 72.792480
v 74.923782 114.738419 71.646477
v 76.498840 114.738419 73.938492
v -72.505760 114.738388 -105.690308
v -72.505760 114.738388 -103.690292
v 75.711311 114.738388 -105.690308
v 75.711311 114.738388 -103.690292
v -74.176788 114.738403 15.445877
v -72.176788 114.738403 13.445876
v 76.711311 114.738403 15.445877
v 74.711311 114.738403 13.445876
v -102.699364 114.738388 -105.690308
v -100.699356 114.738388 -103.690292
v -102.699364 114.738403 15.445877
v -100.699356 114.738403 13.445876
v 96.953125 114.738388 -105.690308
v 94.953117 114.738388 -103.690292
v 96.953125 114.738403 15.445877
v 94.953117 114.738403 13.445876
v -13.773102 114.738419 73.938492
v -15.348159 114.738419 71.646477
v -14.560631 114.738388 -105.690308
v -14.560631 114.738388 -103.690292
v -74.010284 114.738419 101.924026
v -72.343292 114.738419 99.676971
v -15.394129 114.738419 99.676971
v -13.727132 114.738419 101.924026
v -100.700180 65.947739 13.445518
v -102.698547 65.945152 15.446251
v -102.700188 65.947708 -105.690384
v -100.698540 65.945137 -103.690201
v -72.176765 65.951073 72.793282
v -74.176811 65.941833 72.791695
v -72.181137 65.956963 13.440479
v -74.172447 65.935928 15.451289
v -72.505760 65.946426 -103.690285
v -72.505760 65.946426 -105.690300
v 76.711311 65.946457 73.792488
v 74.711311 65.946457 71.792488
v -15.560631 65.946457 71.792488
v -13.560630 65.946457 73.792488
v 94.953117 65.946426 -103.690285
v 96.953125 65.946426 -105.690300
v 96.953125 65.946442 15.445885
v 94.953117 65.946442 13.445884
v -14.560631 65.946426 -103.690285
v -14.560631 65.946426 -105.690300
v -13.560630 65.946457 101.800514
v -15.560631 65.946457 99.800499
v -72.176788 65.946457 99.800499
v -74.176788 65.946457 101.800514
v 74.711311 65.946442 13.445884
v 76.711311 65.946442 15.445885
v 75.711311 65.946426 -103.690285
v 75.711311 65.946426 -105.690300
v 35.016495 165.275345 73.792473
v 35.016495 165.275345 71.792473
v 26.088018 165.275345 73.792473
v 26.088018 165.275345 71.792473
v 41.908798 149.942078 73.792473
v 41.908798 149.942078 71.792473
v 48.171658 140.006897 73.792473
v 48.171658 140.006897 71.792473
v 58.004204 130.113449 73.792473
v 58.004204 130.113449 71.792473
v 3.146476 130.113449 73.792473
v 3.146476 130.113449 71.792473
v 12.979031 140.006882 73.792473
v 12.979031 140.006882 71.792473
v 19.192436 149.942078 73.792473
v 19.192436 149.942078 71.792473
v -45.387077 131.645660 101.800499
v -45.387077 131.645660 99.800484
v -42.350342 131.645660 101.800499
v -42.350342 131.645660 99.800484
v 7.340789 8.778928 73.792496
v 7.340789 7.778927 71.792496
v 7.340789 9.978928 72.192497
v 7.340789 8.778898 -105.690292
v 7.340789 9.778898 -103.690277
v 7.340789 7.778898 -103.690277
v 7.340789 9.778917 14.445894
v 7.340789 7.778918 14.445894
v 7.340789 114.738419 71.792480
v 7.340789 114.738419 73.792480
v 7.340789 114.738388 -105.690308
v 7.340789 114.738388 -103.690292
v 7.340789 65.946426 -105.690300
v 7.340789 65.946426 -103.690285
v 7.340789 65.946457 73.792488
v 7.340789 65.946457 71.792488
v 28.369608 165.275345 73.792473
v 28.369608 165.275345 71.792473
v 22.097643 132.776260 71.792473
v 22.097643 132.776260 73.792473
v 19.483440 140.230133 71.792473
v 19.483440 140.230133 73.792473
v 23.237829 147.393341 73.792473
v 23.237829 147.393341 71.792473
v 57.186337 8.778928 73.792496
v 57.186337 9.978928 72.192497
v 57.186337 7.778927 71.792496
v 57.186337 114.738419 71.792480
v 57.186337 114.738419 73.792480
v 57.186337 65.946457 73.792488
v 57.186337 65.946457 71.792488
v 33.086647 165.275345 73.792473
v 33.086647 165.275345 71.792473
v 40.665543 132.860901 71.792473
v 40.665543 132.860901 73.792473
v 43.490135 140.034409 71.792473
v 43.490135 140.034409 73.792473
v 40.115582 147.529633 73.792473
v 40.115582 147.529633 71.792473
v 57.186337 8.778898 -105.690292
v 57.186337 9.778898 -103.690277
v 57.186337 7.778898 -103.690277
v 57.186337 9.778917 14.445894
v 57.186337 7.778918 14.445894
v 57.186337 114.738388 -105.690308
v 57.186337 114.738388 -103.690292
v 57.186337 65.946426 -105.690300
v 57.186337 65.946426 -103.690285
v -100.698212 55.868057 13.396109
v -102.700508 55.866512 15.392009
v -72.176750 55.870060 72.794090
v -74.176834 55.864529 72.790894
v 74.711311 55.348362 71.792488
v 76.711311 55.348362 73.792488
v 94.953117 55.348335 -103.690285
v 96.953125 55.348331 -105.690300
v -15.560631 55.348366 99.800499
v -13.560630 55.348366 101.800514
v 75.711311 55.348335 -103.690285
v 75.711311 55.348331 -105.690300
v -100.700516 55.866493 -103.739166
v -102.698212 55.868034 -105.745087
v -71.792610 55.873631 13.455088
v -73.815376 55.860939 15.436685
v -72.505760 60.418362 -105.690300
v -72.505760 60.418365 -103.690285
v -15.560631 55.348362 71.792488
v -13.560630 55.348362 73.792488
v 94.953117 55.348354 13.445886
v 96.953125 55.348354 15.445887
v -14.560631 55.348335 -103.690285
v -14.560631 55.348331 -105.690300
v -72.176788 55.867294 99.800499
v -74.176788 55.867294 101.800514
v 74.711311 55.348354 13.445886
v 76.711311 55.348354 15.445887
v 7.340789 55.348362 71.792488
v 7.340789 55.348362 73.792488
v 7.340789 55.348331 -105.690300
v 7.340789 55.348335 -103.690285
v 57.186337 55.348362 71.792488
v 57.186337 55.348362 73.792488
v 57.186337 55.348331 -105.690300
v 57.186337 55.348335 -103.690285
v 56.155800 7.953956 72.332375
v 58.216873 9.603899 73.252617
v 57.186337 55.348362 73.792480
v 57.186337 55.348362 71.792488
v 50.560146 7.879852 85.001251
v 52.227005 9.753695 86.432045
v 39.056355 7.879289 92.393448
v 39.675831 9.754260 94.499138
v 25.378551 7.879289 92.393448
v 24.759073 9.754260 94.499138
v 13.877764 7.880214 85.002983
v 12.204895 9.753333 86.430313
v 8.372578 7.950871 72.339188
v 6.309000 9.606984 73.245804
v 7.340789 55.348366 73.792488
v 7.340789 55.348366 71.792488
v 39.694069 64.116959 73.792480
v 39.694069 64.116959 71.792488
v 39.694069 64.116966 73.792480
v 39.694069 64.116959 71.792488
v 24.761782 64.116959 73.792488
v 24.761782 64.116959 71.792488
v 24.761782 64.116966 73.792488
v 24.761782 64.116959 71.792488
v 40.628647 65.946442 71.792488
v 40.628647 65.946457 73.792480
v 23.984718 65.946442 71.792488
v 23.984718 65.946457 73.792480
v 40.628647 114.738419 73.792480
v 40.628647 114.738419 71.792480
v 40.628647 65.946457 71.792488
v 40.628647 65.946457 73.792488
v 31.361744 165.275345 73.792473
v 31.361744 165.275345 71.792473
v 34.179802 128.125565 73.792473
v 34.179802 128.125565 71.792473
v 34.328480 150.597946 71.792473
v 34.328480 150.597946 73.792473
v 39.694069 64.116959 71.792488
v 39.694069 64.116959 73.792488
v 23.984718 114.738419 73.792480
v 23.984718 114.738419 71.792480
v 23.984718 65.946457 71.792488
v 23.984718 65.946457 73.792488
v 30.618855 165.275345 73.792473
v 30.618855 165.275345 71.792473
v 28.964008 128.086578 73.792473
v 28.964008 128.086578 71.792473
v 28.823988 150.641251 71.792473
v 28.823988 150.641251 73.792473
v -72.176788 1.803368 72.792496
v -74.176788 1.803368 72.792496
v 74.711311 1.803368 71.792496
v 76.711311 1.803368 73.792496
v -73.176788 1.803339 -103.690277
v -73.176788 1.803339 -105.690292
v 75.711311 1.803339 -103.690277
v 75.711311 1.803339 -105.690292
v -72.176788 1.803359 13.445894
v -74.176788 1.803359 15.445895
v 74.711311 1.803359 13.445894
v 76.711311 1.803359 15.445895
v -100.699356 1.803339 -103.690277
v -102.699364 1.803339 -105.690292
v -100.699356 1.803359 13.445894
v -102.699364 1.803359 15.445895
v 94.953117 1.803339 -103.690277
v 96.953125 1.803339 -105.690292
v 94.953117 1.803359 13.445894
v 96.953125 1.803359 15.445895
v -15.560631 1.803368 71.792496
v -13.560630 1.803368 73.792496
v -14.560631 1.803339 -103.690277
v -14.560631 1.803339 -105.690292
v -72.176788 1.803374 99.800507
v -74.176788 1.803372 101.800522
v -15.560631 1.803372 99.800507
v -13.560630 1.803373 101.800522
v 7.340789 1.803368 71.792496
v 7.340789 1.803368 73.792496
v 7.340789 1.803339 -103.690277
v 7.340789 1.803339 -105.690292
v 57.186337 1.803368 71.792496
v 57.186337 1.803368 73.792496
v 57.186337 1.803339 -103.690277
v 57.186337 1.803339 -105.690292
v 58.098869 1.803368 73.201508
v 56.273804 1.803368 72.383492
v 52.184620 1.841215 86.396881
v 50.602531 1.841215 85.036407
v 39.659721 1.841216 94.446297
v 39.072464 1.841216 92.446289
v 24.775183 1.841216 94.446297
v 25.362442 1.841216 92.446289
v 12.247553 1.841215 86.395126
v 13.835106 1.841215 85.038162
v 6.425838 1.803368 73.196060
v 8.255740 1.803368 72.388931
v -60.583210 114.738419 99.800491
v -60.583210 114.738419 101.800507
v -60.583210 65.946457 101.800514
v -60.583210 65.946457 99.800499
v -44.734642 131.645660 101.800499
v -44.734642 131.645660 99.800484
v -60.583210 55.867294 99.800499
v -60.583210 55.867294 101.800514
v -27.144505 114.738419 99.800491
v -27.144505 114.738419 101.800507
v -27.144505 65.946457 99.800499
v -27.144505 65.946457 101.800514
v -43.002277 131.645660 101.800499
v -43.002277 131.645660 99.800484
v -27.144501 55.348366 101.800514
v -27.144501 55.348366 99.800499
v -60.549465 9.778932 99.800507
v -60.549465 6.778686 99.800507
v -60.549465 8.778932 101.800522
v -60.547596 1.803374 99.800507
v -60.547596 1.803372 101.800522
v -27.107992 8.778932 101.800522
v -27.107992 6.779196 99.800507
v -27.107992 9.778932 99.800507
v -27.105984 1.803372 99.800507
v -27.105984 1.803373 101.800522
v -87.438080 114.738388 -105.690308
v -87.438080 114.738388 -103.690292
v -62.612347 58.703503 -103.690285
v -62.612347 58.703499 -105.690300
v -55.438782 9.979263 100.202866
v -55.438782 7.578600 101.398163
v -32.655281 9.979037 100.201256
v -32.655281 7.578826 101.399773
v -60.565163 49.685699 101.800514
v -60.565163 49.685699 99.800499
v -27.124975 49.685699 101.800514
v -27.124975 49.685699 99.800499
v -32.570000 49.685699 99.800499
v -32.570000 49.685699 101.800514
v -55.708347 49.685699 101.800514
v -55.708347 49.685699 99.800499
v 74.711311 30.763371 71.792496
v 76.711311 30.763371 73.792496
v 94.953117 30.763342 -103.690277
v 96.953125 30.763342 -105.690292
v 75.711311 30.763342 -103.690277
v 75.711311 30.763342 -105.690292
v 7.340789 30.763342 -103.690277
v 7.340789 30.763342 -105.690292
v 57.186337 30.763371 71.792496
v 57.186337 30.763371 73.792496
v 57.186337 30.763342 -105.690292
v 57.186337 30.763342 -103.690277
v 96.953125 30.763361 15.445890
v 94.953117 30.763361 13.445889
v -14.560631 30.763342 -105.690292
v -14.560631 30.763342 -103.690277
v 74.711311 30.763361 13.445889
v 76.711311 30.763361 15.445890
v -72.176788 30.761513 72.793289
v -74.176796 30.765228 72.791702
v -102.699036 30.763880 15.445767
v -100.699692 30.762842 13.446012
v -100.699036 30.763857 -103.689697
v -102.699692 30.762827 -105.690872
v -72.177567 30.759129 13.443979
v -74.176018 30.767593 15.447802
v -73.176788 30.763342 -103.690277
v -73.176788 30.763342 -105.690292
v -74.176788 30.763376 101.800522
v -72.176788 30.763376 99.800507
v -87.438538 65.945786 -103.690285
v -87.437622 65.947067 -105.690300
v -87.439384 55.924362 -103.690285
v -87.436768 55.925484 -105.690300
v -87.438690 30.763685 -103.690277
v -87.437469 30.762999 -105.690292
v -55.720516 114.738388 -105.690308
v -55.720516 114.738388 -103.690292
v -55.720516 65.946426 -105.690300
v -55.720516 65.946426 -103.690285
v -55.720516 55.348335 -103.690285
v -55.720516 55.348331 -105.690300
v -55.720516 30.763342 -103.690277
v -55.720516 30.763342 -105.690292
v -80.916687 58.330700 -105.690300
v -80.916687 58.330704 -103.690285
v 57.186337 77.462051 73.792488
v 57.186337 77.462051 71.792488
v 7.340789 77.462051 71.792488
v 7.340789 77.462051 73.792488
v 40.628647 77.462051 73.792488
v 40.628647 77.462051 71.792488
v 23.984718 77.462051 71.792488
v 23.984718 77.462051 73.792488
v 40.628647 107.146484 71.792480
v 40.628647 107.146484 73.792480
v 7.340789 107.146484 71.792480
v 7.340789 107.146484 73.792480
v 23.984718 107.146484 73.792480
v 23.984718 107.146484 71.792480
v 57.186337 107.146484 73.792480
v 57.186337 107.146484 71.792480
v 20.769594 107.146484 71.792480
v 20.769594 107.146484 73.792480
v 20.769594 114.738419 73.792480
v 20.769594 114.738419 71.792480
v 20.769594 77.462051 73.792488
v 20.769594 77.462051 71.792488
v 43.883251 77.462051 71.792488
v 43.883251 77.462051 73.792488
v 43.883251 107.146484 73.792480
v 43.883251 107.146484 71.792480
v 43.883251 114.738419 73.792480
v 43.883251 114.738419 71.792480
v -52.662224 65.946457 99.800499
v -52.662224 65.946457 101.800514
v -52.662224 114.738419 101.800507
v -52.662224 114.738419 99.800491
v -34.805180 65.946457 99.800499
v -34.805180 65.946457 101.800514
v -34.805187 114.738419 101.800507
v -34.805187 114.738419 99.800491
v -34.805187 106.832222 101.800507
v -34.805187 106.832222 99.800491
v -52.662224 106.832222 101.800507
v -52.662224 106.832222 99.800491
v -34.805180 70.654320 101.800514
v -34.805180 70.654320 99.800499
v -52.662224 70.654320 101.800514
v -52.662224 70.654320 99.800499
v -62.612358 65.946426 -103.690285
v -62.612358 65.946426 -105.690300
v -80.916687 65.946426 -105.690300
v -80.916687 65.946426 -103.690285
v -102.699364 114.738388 -73.556030
v -100.699356 114.738388 -73.556030
v -100.699356 65.946426 -73.556023
v -102.699364 65.946426 -73.556023
v -102.699364 114.738403 1.290781
v -100.699356 114.738403 1.290781
v -102.699364 65.946442 1.290789
v -100.699356 65.946442 1.290789
v -102.699364 107.026527 1.290782
v -100.699356 107.026527 1.290782
v -100.699356 106.949989 -73.556030
v -102.699364 106.949989 -73.556030
v -102.699364 68.604034 1.290788
v -100.699356 68.604034 1.290788
v -100.699356 68.644470 -73.556023
v -102.699364 68.644470 -73.556023
v 96.953125 100.822083 15.445879
v 94.953117 100.822083 13.445878
v 94.953117 100.822060 -103.690292
v 96.953125 100.822060 -105.690308
v 94.953117 65.946442 -6.600952
v 96.953125 65.946442 -6.600952
v 96.953125 114.738403 -6.600979
v 94.953117 114.738403 -6.600979
v 96.953125 100.822083 -6.600957
v 94.953117 100.822083 -6.600957
v 96.953125 65.946434 -46.897610
v 94.953117 65.946434 -46.897610
v 96.953125 114.738396 -46.897610
v 94.953117 114.738396 -46.897610
v 94.953117 100.822067 -46.897617
v 96.953125 100.822067 -46.897617
vn 1.0000 -0.0000 -0.0000
vn -1.0000 -0.0000 -0.0000
vn -0.0000 1.0000 -0.0000
vn 0.0001 1.0000 -0.0003
vn -0.0002 1.0000 0.0003
vn 0.0009 1.0000 -0.0015
vn -0.0013 1.0000 -0.0014
vn -0.0003 1.0000 -0.0017
vn 0.0003 1.0000 -0.0004
vn -0.0002 1.0000 0.0004
vn 0.0015 1.0000 0.0012
vn 0.6374 0.7345 -0.2329
vn 0.6374 0.7341 -0.2342
vn 0.6373 0.7341 -0.2342
vn 0.6371 0.7348 -0.2328
vn -0.9120 0.4101 -0.0000
vn 0.9121 0.4100 -0.0000
vn 0.8459 0.5333 -0.0000
vn 0.7093 0.7049 -0.0000
vn 0.7101 0.7041 0.0003
vn 0.7086 0.7057 -0.0006
vn -0.6373 0.7341 0.2344
vn -0.6373 0.7346 0.2329
vn -0.6373 0.7345 0.2331
vn -0.7086 0.7056 0.0004
vn -0.7093 0.7049 -0.0000
vn -0.7099 0.7043 -0.0004
vn -0.8478 0.5302 -0.0000
vn 0.0032 1.0000 -0.0006
vn 0.0021 1.0000 0.0030
vn 0.5093 0.8371 -0.1999
vn 0.5080 0.8376 -0.2011
vn 0.5078 0.8381 -0.1995
vn -0.5077 0.8380 -0.2001
vn -0.5093 0.8371 -0.1999
vn -0.5093 0.8375 -0.1981
vn 0.8857 -0.4642 -0.0000
vn 0.9436 0.3310 -0.0000
vn 0.9440 0.3300 0.0003
vn 0.9435 0.3315 -0.0009
vn -0.0000 -0.1789 0.9839
vn -0.5897 0.8076 -0.0000
vn -0.5890 0.8081 -0.0008
vn -0.5892 0.8080 -0.0010
vn -0.4684 -0.8835 -0.0000
vn -0.9305 0.3664 -0.0000
vn -0.9309 0.3654 -0.0006
vn -0.9302 0.3672 0.0008
vn -0.9118 -0.4105 -0.0000
vn -0.0000 -1.0000 -0.0000
vn 0.2409 -0.9706 -0.0000
vn -0.0000 0.4837 -0.8753
vn 0.4496 -0.8932 -0.0000
vn 0.1446 -0.5007 -0.8535
vn -0.4481 -0.8940 -0.0000
vn -0.9345 0.0403 -0.3536
vn -0.9204 -0.3909 -0.0000
vn 0.8905 -0.4549 -0.0000
vn -0.0075 1.0000 -0.0000
vn -0.0079 -1.0000 -0.0000
vn 0.5638 0.8259 0.0010
vn 0.5640 0.8258 -0.0000
vn 0.5633 0.8263 0.0006
vn 0.5026 -0.8645 -0.0000
vn -0.5225 -0.0000 0.8527
vn 0.3828 0.6532 0.6533
vn 0.3828 -0.0000 -0.9238
vn -0.5225 -0.8422 -0.1334
vn 0.3202 0.9473 -0.0000
vn 1.0000 -0.0027 -0.0018
vn -0.0015 -1.0000 0.0023
vn 0.0014 -1.0000 0.0023
vn -0.4029 -0.0000 -0.9153
vn 0.4083 -0.0000 -0.9128
vn -0.0018 1.0000 -0.0027
vn -0.0036 1.0000 0.0007
vn -1.0000 0.0021 0.0016
vn -0.0000 0.4462 0.8949
vn 0.0027 1.0000 -0.0018
vn -0.0006 1.0000 -0.0032
vn -0.0030 1.0000 0.0021
vn 0.0007 1.0000 0.0036
vn 1.0000 0.0003 -0.0002
vn -1.0000 -0.0003 0.0002
vn 1.0000 0.0066 0.0050
vn 1.0000 0.0018 -0.0027
vn 0.5225 -0.4455 0.7270
vn 0.5225 -0.7270 -0.4455
vn 0.0005 1.0000 -0.0003
vn -0.0000 1.0000 -0.0002
vn 0.0001 1.0000 0.0004
vn 1.0000 -0.0000 0.0010
vn 1.0000 0.0001 0.0004
vn 1.0000 0.0006 0.0010
vn -0.4377 -0.8991 -0.0000
vn -0.1708 -0.9853 -0.0000
vn 0.3461 -0.9382 -0.0000
vn -0.0000 -1.0000 0.0010
vn -0.0000 -0.0000 -1.0000
vn -0.0000 -0.0000 1.0000
vn -0.0000 1.0000 0.0005
vn -0.0100 0.9999 -0.0016
vn -0.0046 1.0000 0.0014
vn -0.0065 1.0000 -0.0015
vn 0.0093 1.0000 -0.0015
vn 0.0031 1.0000 -0.0015
vn -0.0000 -0.9999 -0.0141
vn -0.0031 1.0000 0.0030
vn 0.0035 -0.0015 1.0000
vn 0.0024 0.0001 1.0000
vn 0.0015 -0.0016 1.0000
vn 0.0029 -0.0015 1.0000
vn 0.0032 -0.0015 -1.0000
vn 0.0037 -0.0013 -1.0000
vn 0.0026 -0.0034 -1.0000
vn 0.0017 -0.0025 -1.0000
vn -0.0001 0.0001 1.0000
vn -0.0001 0.0001 -1.0000
vn 0.0046 -0.0013 1.0000
vn 0.0036 -0.0063 1.0000
vn 0.0049 -0.0030 1.0000
vn 0.0053 -0.0013 -1.0000
vn 0.0070 -0.0021 -1.0000
vn 0.0021 -0.0061 -1.0000
vn -1.0000 0.0017 0.0029
vn -1.0000 0.0014 0.0012
vn 1.0000 0.0017 0.0031
vn 1.0000 -0.0000 0.0022
vn 1.0000 0.0022 0.0018
vn 1.0000 0.0019 0.0019
vn -1.0000 0.0022 0.0018
vn -1.0000 0.0025 0.0018
vn 1.0000 0.0039 -0.0008
vn 1.0000 0.0044 -0.0008
vn 1.0000 0.0023 -0.0016
vn -1.0000 0.0039 -0.0008
vn -1.0000 0.0036 -0.0028
vn -1.0000 0.0034 -0.0010
vn -0.0000 -0.0000 -0.0000
vn -0.0009 -0.0034 1.0000
vn 0.0009 0.0017 -1.0000
vn -0.9998 -0.0177 -0.0032
vn 0.9998 0.0193 0.0032
vn 0.0035 0.0005 1.0000
vn 0.0047 0.0026 1.0000
vn 0.0041 0.0019 1.0000
vn 0.0026 0.0005 1.0000
vn 0.0037 0.0014 -1.0000
vn 0.0033 0.0019 -1.0000
vn 0.0039 -0.0000 -1.0000
vn 0.0017 0.0018 -1.0000
vn 0.0010 -0.0003 1.0000
vn 0.0011 -0.0000 1.0000
vn -0.0010 -0.0001 -1.0000
vn -0.0004 -0.0010 -1.0000
vn 0.0105 -0.0078 0.9999
vn 0.0038 -0.0065 1.0000
vn 0.0057 -0.0089 0.9999
vn 0.0088 -0.0079 0.9999
vn 0.0118 -0.0082 -0.9999
vn 0.0100 -0.0089 -0.9999
vn 0.0072 -0.0114 -0.9999
vn 0.0061 -0.0046 -1.0000
vn -0.0006 0.0008 1.0000
vn 0.0020 0.0001 1.0000
vn 0.0015 0.0013 -1.0000
vn 0.0010 0.0004 -1.0000
vn 0.0006 -0.0018 1.0000
vn 0.0016 -0.0009 -1.0000
vn 0.0037 1.0000 -0.0049
vn -0.0038 -0.0015 1.0000
vn -0.0040 -0.0014 1.0000
vn -0.0030 -0.0035 1.0000
vn -0.0021 -0.0027 1.0000
vn -0.0041 -0.0015 -1.0000
vn -0.0029 0.0003 -1.0000
vn -0.0019 -0.0015 -1.0000
vn -0.0038 -0.0015 -1.0000
vn -0.0022 0.0013 1.0000
vn -0.0041 0.0005 1.0000
vn -0.0039 0.0014 1.0000
vn -0.0041 -0.0009 1.0000
vn -0.0056 0.0019 -1.0000
vn -0.0050 0.0011 -1.0000
vn -0.0030 -0.0002 -1.0000
vn -0.0041 -0.0001 -1.0000
vn 0.0007 -0.0009 1.0000
vn 0.0011 0.0001 1.0000
vn -0.0012 -0.0003 -1.0000
vn -0.0011 -0.0005 -1.0000
vn 0.4455 0.7270 -0.5225
vn 0.7270 0.4455 0.5225
vn -0.0000 1.0000 -0.0035
vn 0.7270 -0.4455 -0.5225
vn 0.4455 -0.7270 0.5225
vn 0.0027 -0.0018 -1.0000
vn -1.0000 0.0072 -0.0032
vn 1.0000 -0.0077 0.0032
vn -0.0033 -0.0105 -0.9999
vn -0.0015 -0.0077 -1.0000
vn -0.0008 0.0013 1.0000
vn 0.0010 -0.0008 -1.0000
vn -0.0000 -1.0000 -0.0043
vn -0.0000 1.0000 -0.0082
vn -0.0000 0.0033 -1.0000
vn -0.0018 -0.0010 1.0000
vn -0.0007 -0.0021 -1.0000
vn -0.0017 0.0012 1.0000
vn -0.0011 0.0001 1.0000
vn 0.0004 0.0011 -1.0000
vn -0.0022 -0.0000 -1.0000
vn 0.5406 -0.0088 -0.8412
vn -0.5406 -0.0067 0.8412
vn -0.5406 -0.0087 -0.8412
vn 0.5407 -0.0067 0.8412
vn 0.9159 -0.0148 -0.4011
vn -0.9138 -0.0115 0.4059
vn -0.0000 -0.0088 -1.0000
vn -0.0000 -0.0067 1.0000
vn -0.9135 -0.0149 -0.4065
vn 0.9114 -0.0116 0.4114
vn -0.0050 0.0011 1.0000
vn -0.0031 -0.0009 1.0000
vn 0.0004 -0.0032 1.0000
vn 0.0038 0.0034 1.0000
vn 0.0050 0.0029 -1.0000
vn 0.0036 -0.0010 -1.0000
vn -0.0005 -0.0037 -1.0000
vn -0.0056 0.0018 -1.0000
vn -0.0046 -0.0013 1.0000
vn -0.0061 -0.0020 1.0000
vn 0.0001 -0.0033 1.0000
vn -0.0053 -0.0013 -1.0000
vn -0.0005 -0.0046 -1.0000
vn -0.0056 -0.0032 -1.0000
vn 0.0018 0.0027 -1.0000
vn -0.0018 -0.0024 1.0000
vn -0.0096 -0.0028 0.9999
vn -0.0104 -0.0073 0.9999
vn -0.0088 -0.0079 0.9999
vn -0.0063 -0.0101 0.9999
vn -0.0092 -0.0032 -1.0000
vn -0.0064 -0.0101 -0.9999
vn -0.0100 -0.0090 -0.9999
vn -0.0119 -0.0088 -0.9999
vn -0.9999 -0.0061 -0.0099
vn -0.0020 -0.0047 1.0000
vn -0.0033 -0.0048 -1.0000
vn 0.0350 -0.0287 0.9990
vn 0.0404 -0.0049 -0.9992
vn 0.0012 -0.0010 -1.0000
vn 0.0018 -0.0011 -1.0000
vn -0.0019 0.0015 1.0000
vn -0.0018 0.0010 1.0000
vn -0.0316 -0.0284 0.9991
vn -0.0365 -0.0050 -0.9993
vn -0.0115 -0.0096 -0.9999
vn 0.9999 -0.0132 -0.0047
vn 0.0006 -0.0001 -1.0000
vn -0.0005 -0.0002 1.0000
vn 0.0097 -0.0133 -0.9999
vn -0.0138 -0.0133 -0.9998
vn -0.9999 -0.0132 -0.0047
vn 0.0018 0.0006 1.0000
vn 0.0009 0.0016 -1.0000
vn 0.0050 -0.0009 1.0000
vn 0.0049 -0.0032 -1.0000
vn 0.0001 -0.0020 1.0000
vn 0.0019 -0.0006 -1.0000
vn -0.0020 -0.0008 1.0000
vn -0.0010 0.0018 1.0000
vn -0.0000 -0.0022 -1.0000
vn -0.0021 0.0007 -1.0000
vt 0.782742 0.613616
vt 0.779971 0.615694
vt 0.779971 0.612231
vt 0.699992 0.613616
vt 0.702763 0.612231
vt 0.702763 0.615694
vt 0.559485 0.193812
vt 0.651517 0.173888
vt 0.651867 0.176712
vt 0.559021 0.197205
vt 0.241915 0.834024
vt 0.268497 0.834708
vt 0.268408 0.837884
vt 0.241833 0.837169
vt 0.497755 0.659378
vt 0.517304 0.567689
vt 0.520471 0.567249
vt 0.500386 0.656885
vt 0.493513 0.174424
vt 0.513265 0.168573
vt 0.512942 0.172002
vt 0.493898 0.177203
vt 0.292315 0.835394
vt 0.316736 0.836101
vt 0.313449 0.839213
vt 0.292223 0.838588
vt 0.508479 0.444763
vt 0.509237 0.349241
vt 0.512463 0.352507
vt 0.511663 0.444783
vt 0.501600 0.539478
vt 0.504765 0.539087
vt 0.007280 0.829884
vt 0.039262 0.829899
vt 0.039241 0.832910
vt 0.010300 0.832899
vt 0.143765 0.831603
vt 0.177624 0.832441
vt 0.177545 0.835549
vt 0.143699 0.834684
vt 0.695664 0.171551
vt 0.692417 0.174274
vt 0.699992 0.000243
vt 0.743935 0.001015
vt 0.747495 0.003546
vt 0.703479 0.002916
vt 0.767404 0.431627
vt 0.764579 0.431403
vt 0.764810 0.428476
vt 0.767635 0.428699
vt 0.730425 0.377131
vt 0.699992 0.352612
vt 0.704087 0.350702
vt 0.732503 0.374632
vt 0.792598 0.408776
vt 0.779901 0.431017
vt 0.777255 0.429506
vt 0.789952 0.407265
vt 0.762045 0.429465
vt 0.753732 0.406225
vt 0.756497 0.405236
vt 0.753932 0.406522
vt 0.746377 0.391461
vt 0.748942 0.390175
vt 0.746713 0.392532
vt 0.730274 0.376989
vt 0.853386 0.360081
vt 0.820931 0.380509
vt 0.819126 0.377681
vt 0.852793 0.355454
vt 0.821208 0.380303
vt 0.802923 0.394823
vt 0.800841 0.392201
vt 0.803412 0.394059
vt 0.792523 0.409124
vt 0.527724 0.950560
vt 0.527687 0.951568
vt 0.524596 0.951454
vt 0.524646 0.950443
vt 0.527204 0.953090
vt 0.500387 0.996680
vt 0.498409 0.992854
vt 0.500746 0.901065
vt 0.527593 0.945153
vt 0.524801 0.946771
vt 0.498733 0.904915
vt 0.067177 0.830282
vt 0.067125 0.833325
vt 0.776994 0.432306
vt 0.773800 0.432008
vt 0.774061 0.429208
vt 0.781779 0.400892
vt 0.786655 0.391244
vt 0.790249 0.391453
vt 0.784247 0.403037
vt 0.786656 0.391240
vt 0.784276 0.379814
vt 0.787579 0.378644
vt 0.769793 0.431596
vt 0.767440 0.431428
vt 0.769988 0.428868
vt 0.772383 0.372891
vt 0.763700 0.380579
vt 0.760581 0.378778
vt 0.769978 0.369696
vt 0.767116 0.407338
vt 0.759277 0.402033
vt 0.761440 0.400297
vt 0.767874 0.404693
vt 0.498854 0.768950
vt 0.513606 0.796881
vt 0.512360 0.799655
vt 0.496181 0.770396
vt 0.755957 0.390496
vt 0.763698 0.380583
vt 0.759297 0.390668
vt 0.759296 0.390671
vt 0.138345 0.928317
vt 0.062803 0.923481
vt 0.062920 0.920296
vt 0.140696 0.924936
vt 0.276827 0.930259
vt 0.264891 0.926718
vt 0.264708 0.923171
vt 0.277931 0.926368
vt 0.042268 0.922697
vt 0.038115 0.920113
vt 0.707374 0.575236
vt 0.765827 0.520030
vt 0.765515 0.524349
vt 0.711705 0.575168
vt 0.428155 0.739454
vt 0.398037 0.739864
vt 0.397952 0.736838
vt 0.428150 0.736347
vt 0.481495 0.738851
vt 0.450990 0.739525
vt 0.450948 0.736416
vt 0.481402 0.735817
vt 0.781278 0.609952
vt 0.706170 0.611665
vt 0.705293 0.609760
vt 0.780952 0.608527
vt 0.785567 0.609270
vt 0.699992 0.610708
vt 0.702374 0.611746
vt 0.789245 0.608856
vt 0.783821 0.611746
vt 0.770783 0.431643
vt 0.769780 0.431566
vt 0.770991 0.428945
vt 0.776936 0.372497
vt 0.772386 0.372887
vt 0.778891 0.368986
vt 0.775273 0.407833
vt 0.774548 0.405037
vt 0.450962 0.736406
vt 0.450960 0.739553
vt 0.773827 0.431938
vt 0.770756 0.431675
vt 0.784275 0.379810
vt 0.776938 0.372503
vt 0.481517 0.738915
vt 0.481394 0.735926
vt 0.450975 0.739538
vt 0.397929 0.736865
vt 0.397813 0.739454
vt 0.557138 0.001277
vt 0.646421 0.000690
vt 0.646448 0.003695
vt 0.560166 0.004266
vt 0.749324 0.832200
vt 0.773693 0.843819
vt 0.775148 0.847927
vt 0.747998 0.834981
vt 0.180123 0.653298
vt 0.271938 0.653746
vt 0.271925 0.656882
vt 0.180108 0.656425
vt 0.336833 0.658370
vt 0.333306 0.572475
vt 0.336371 0.575298
vt 0.339899 0.661193
vt 0.333537 0.000243
vt 0.513763 0.000848
vt 0.516830 0.003936
vt 0.330450 0.003309
vt 0.315135 0.653903
vt 0.318265 0.657054
vt 0.519892 0.000920
vt 0.563228 0.001251
vt 0.331650 0.541576
vt 0.325294 0.357885
vt 0.328321 0.354640
vt 0.334895 0.544604
vt 0.333484 0.578477
vt 0.332008 0.547782
vt 0.009584 0.652971
vt 0.039521 0.652933
vt 0.039522 0.656044
vt 0.006478 0.656086
vt 0.145932 0.653156
vt 0.145921 0.656273
vt 0.327546 0.821865
vt 0.325294 0.807370
vt 0.328212 0.803830
vt 0.329650 0.820612
vt 0.686945 0.000243
vt 0.689979 0.003210
vt 0.880215 0.348064
vt 0.836832 0.348111
vt 0.839926 0.345010
vt 0.883309 0.344963
vt 0.556273 0.848879
vt 0.588340 0.832200
vt 0.589797 0.835000
vt 0.560530 0.850222
vt 0.068342 0.652947
vt 0.068337 0.656059
vt 0.777441 0.520200
vt 0.784754 0.541370
vt 0.781525 0.541512
vt 0.774513 0.521211
vt 0.784999 0.546644
vt 0.779449 0.569028
vt 0.776661 0.567400
vt 0.781770 0.546794
vt 0.776816 0.573538
vt 0.760052 0.589366
vt 0.758587 0.586489
vt 0.774028 0.571910
vt 0.755398 0.591736
vt 0.732728 0.595992
vt 0.733073 0.592776
vt 0.753933 0.588859
vt 0.727424 0.595423
vt 0.706809 0.586801
vt 0.708004 0.583943
vt 0.727760 0.592206
vt 0.702171 0.597965
vt 0.699992 0.594221
vt 0.703968 0.585567
vt 0.788872 0.516282
vt 0.776388 0.517286
vt 0.785280 0.513862
vt 0.527861 0.946895
vt 0.527820 0.947893
vt 0.524733 0.947772
vt 0.325758 0.897478
vt 0.325294 0.881731
vt 0.327729 0.882882
vt 0.329476 0.900580
vt 0.398376 0.967036
vt 0.336588 0.968393
vt 0.332794 0.966648
vt 0.398276 0.963925
vt 0.244550 0.323393
vt 0.208917 0.323427
vt 0.208913 0.319231
vt 0.244546 0.319198
vt 0.741255 0.841964
vt 0.745217 0.833655
vt 0.743373 0.844680
vt 0.592597 0.833544
vt 0.596949 0.841911
vt 0.594877 0.844768
vt 0.336385 0.877569
vt 0.331081 0.876751
vt 0.332862 0.826110
vt 0.337711 0.825273
vt 0.397457 0.933803
vt 0.325294 0.931559
vt 0.329616 0.929615
vt 0.397521 0.930378
vt 0.400725 0.738238
vt 0.368752 0.803345
vt 0.367339 0.800569
vt 0.395207 0.967110
vt 0.394352 0.930452
vt 0.042266 0.922701
vt 0.038701 0.953144
vt 0.036240 0.956463
vt 0.140863 0.961120
vt 0.136881 0.957232
vt 0.138349 0.928318
vt 0.478705 0.737347
vt 0.066276 0.957800
vt 0.066429 0.954712
vt 0.136875 0.957234
vt 0.277655 0.968684
vt 0.260235 0.969371
vt 0.260243 0.966219
vt 0.275212 0.966719
vt 0.038705 0.953146
vt 0.287608 0.932341
vt 0.275213 0.966716
vt 0.283429 0.933045
vt 0.250820 0.928539
vt 0.241691 0.933634
vt 0.238785 0.931682
vt 0.249402 0.925433
vt 0.264888 0.926718
vt 0.250823 0.928537
vt 0.235858 0.967046
vt 0.238903 0.964865
vt 0.241689 0.933636
vt 0.238902 0.964862
vt 0.283430 0.933039
vt 0.276831 0.930260
vt 0.804766 0.059722
vt 0.809028 0.059656
vt 0.808695 0.062323
vt 0.803544 0.061775
vt 0.808927 0.059538
vt 0.834057 0.059393
vt 0.834327 0.062128
vt 0.803634 0.016308
vt 0.808682 0.015654
vt 0.809001 0.018303
vt 0.804857 0.018289
vt 0.833552 0.015487
vt 0.833262 0.018128
vt 0.805402 0.017768
vt 0.805246 0.060250
vt 0.833982 0.059539
vt 0.838255 0.059625
vt 0.839446 0.061520
vt 0.838651 0.016088
vt 0.837431 0.018053
vt 0.837768 0.060224
vt 0.836864 0.017437
vt 0.486067 0.935152
vt 0.486103 0.963162
vt 0.484270 0.962088
vt 0.484132 0.936294
vt 0.431407 0.963263
vt 0.432726 0.961608
vt 0.484812 0.961478
vt 0.484652 0.936804
vt 0.432597 0.936233
vt 0.431210 0.934605
vt 0.433149 0.935732
vt 0.433300 0.962114
vt 0.330729 0.177186
vt 0.378832 0.177618
vt 0.378853 0.180656
vt 0.333723 0.180212
vt 0.379027 0.191535
vt 0.494729 0.188740
vt 0.492029 0.193419
vt 0.383130 0.194379
vt 0.496092 0.253158
vt 0.491465 0.249267
vt 0.492034 0.193421
vt 0.383128 0.194382
vt 0.375320 0.244173
vt 0.372462 0.247976
vt 0.375325 0.244175
vt 0.491459 0.249269
vt 0.508653 0.507661
vt 0.511461 0.507901
vt 0.533457 0.503215
vt 0.583618 0.500145
vt 0.586980 0.502881
vt 0.530694 0.507698
vt 0.583621 0.500142
vt 0.583919 0.441564
vt 0.587468 0.436589
vt 0.533588 0.444758
vt 0.538349 0.446829
vt 0.533452 0.503213
vt 0.583916 0.441558
vt 0.538350 0.446824
vt 0.041149 0.460894
vt 0.068512 0.459336
vt 0.068357 0.643645
vt 0.039518 0.643634
vt 0.040001 0.184563
vt 0.039119 0.000512
vt 0.068092 0.000485
vt 0.068270 0.185248
vt 0.041143 0.369745
vt 0.068520 0.369743
vt 0.040948 0.274964
vt 0.068359 0.275563
vt 0.271978 0.644378
vt 0.270777 0.461009
vt 0.315450 0.461073
vt 0.315162 0.644523
vt 0.271976 0.000286
vt 0.315020 0.000243
vt 0.315204 0.183440
vt 0.271446 0.184338
vt 0.009566 0.643668
vt 0.009566 0.460895
vt 0.009191 0.183737
vt 0.009025 0.000539
vt 0.182216 0.369736
vt 0.270811 0.368133
vt 0.180610 0.459390
vt 0.181280 0.275682
vt 0.180481 0.185139
vt 0.270681 0.276303
vt 0.180164 0.643954
vt 0.180302 0.000376
vt 0.182013 0.325945
vt 0.200135 0.325861
vt 0.252669 0.325800
vt 0.270922 0.325853
vt 0.270729 0.318542
vt 0.252544 0.318563
vt 0.200231 0.318619
vt 0.182171 0.318635
vt 0.494738 0.101417
vt 0.516484 0.101579
vt 0.492341 0.161617
vt 0.494722 0.105484
vt 0.495894 0.257385
vt 0.514588 0.258384
vt 0.560287 0.102717
vt 0.648007 0.100438
vt 0.557503 0.259997
vt 0.653144 0.256366
vt 0.283275 0.757934
vt 0.293596 0.758074
vt 0.269995 0.757743
vt 0.278727 0.915023
vt 0.265096 0.914486
vt 0.289179 0.915970
vt 0.839818 0.245656
vt 0.807443 0.245736
vt 0.807399 0.227899
vt 0.807285 0.181919
vt 0.807256 0.170160
vt 0.839961 0.170079
vt 0.746474 0.080119
vt 0.782968 0.004151
vt 0.782822 0.015948
vt 0.782557 0.062068
vt 0.782575 0.080165
vt 0.431083 0.444915
vt 0.429385 0.351005
vt 0.486367 0.349418
vt 0.486174 0.444437
vt 0.535539 0.352391
vt 0.589837 0.350461
vt 0.179194 0.756511
vt 0.243581 0.757337
vt 0.174421 0.911401
vt 0.238693 0.914229
vt 0.429127 0.898903
vt 0.429405 0.877972
vt 0.504369 0.878996
vt 0.504099 0.899632
vt 0.424028 0.904108
vt 0.498531 0.923043
vt 0.423754 0.922258
vt 0.433207 0.573496
vt 0.432708 0.542441
vt 0.484170 0.542126
vt 0.586143 0.566833
vt 0.530017 0.535512
vt 0.586604 0.535387
vt 0.691665 0.098996
vt 0.697379 0.254784
vt 0.006891 0.755448
vt 0.039553 0.755377
vt 0.007157 0.808837
vt 0.010616 0.904637
vt 0.010427 0.853723
vt 0.037861 0.905108
vt 0.433136 0.657453
vt 0.582825 0.659982
vt 0.883200 0.245609
vt 0.883309 0.170032
vt 0.702188 0.079532
vt 0.068033 0.755482
vt 0.063697 0.906054
vt 0.682640 0.913052
vt 0.681939 0.910075
vt 0.681954 0.910059
vt 0.712475 0.909373
vt 0.712496 0.909436
vt 0.705465 0.924108
vt 0.451623 0.733446
vt 0.473867 0.721688
vt 0.039556 0.739053
vt 0.068126 0.739117
vt 0.883218 0.262024
vt 0.839836 0.262072
vt 0.701679 0.096285
vt 0.746344 0.097116
vt 0.417971 0.657809
vt 0.417200 0.573523
vt 0.599894 0.660414
vt 0.602518 0.567167
vt 0.006815 0.739129
vt 0.010263 0.918001
vt 0.647635 0.085202
vt 0.691190 0.083957
vt 0.653592 0.272838
vt 0.697958 0.271457
vt 0.416520 0.542665
vt 0.602505 0.535759
vt 0.179406 0.739982
vt 0.243809 0.740720
vt 0.173542 0.927025
vt 0.412401 0.351482
vt 0.432208 0.508320
vt 0.603864 0.350557
vt 0.516514 0.086081
vt 0.560573 0.087010
vt 0.513777 0.274075
vt 0.557996 0.275507
vt 0.270119 0.749028
vt 0.283429 0.745901
vt 0.788757 0.456541
vt 0.782491 0.460489
vt 0.774542 0.432791
vt 0.778076 0.432791
vt 0.839820 0.511070
vt 0.807115 0.511070
vt 0.784257 0.483130
vt 0.813612 0.487255
vt 0.814965 0.351275
vt 0.788307 0.471584
vt 0.798382 0.471930
vt 0.530677 0.854978
vt 0.530664 0.855981
vt 0.786314 0.511070
vt 0.781334 0.511070
vt 0.773622 0.490394
vt 0.792921 0.348908
vt 0.788047 0.348596
vt 0.773839 0.455458
vt 0.771058 0.432791
vt 0.413743 0.826518
vt 0.430041 0.826684
vt 0.429896 0.838450
vt 0.429567 0.865818
vt 0.413924 0.877735
vt 0.407457 0.975386
vt 0.407574 0.922288
vt 0.423761 0.934740
vt 0.423996 0.963184
vt 0.424040 0.975145
vt 0.330000 0.086491
vt 0.379375 0.101871
vt 0.330086 0.101965
vt 0.329088 0.264650
vt 0.329987 0.250260
vt 0.372321 0.251680
vt 0.145150 0.756060
vt 0.141287 0.908992
vt 0.781662 0.245799
vt 0.781618 0.227962
vt 0.786598 0.227950
vt 0.808805 0.079998
vt 0.146416 0.369729
vt 0.146379 0.459356
vt 0.146315 0.275487
vt 0.146228 0.185172
vt 0.145963 0.643840
vt 0.146049 0.000409
vt 0.730235 0.245926
vt 0.699992 0.246001
vt 0.700134 0.170424
vt 0.730049 0.170350
vt 0.730078 0.182110
vt 0.730191 0.228089
vt 0.860394 0.079173
vt 0.860056 0.061301
vt 0.859230 0.015574
vt 0.859004 0.003840
vt 0.886494 0.003226
vt 0.887487 0.078646
vt 0.145322 0.739614
vt 0.756349 0.460278
vt 0.753571 0.456541
vt 0.764247 0.432791
vt 0.767236 0.432791
vt 0.729907 0.511070
vt 0.699992 0.511070
vt 0.728640 0.487255
vt 0.755497 0.482999
vt 0.732890 0.349616
vt 0.743870 0.471930
vt 0.751122 0.471888
vt 0.739646 0.922382
vt 0.732619 0.937119
vt 0.497411 0.709242
vt 0.504938 0.723480
vt 0.728797 0.875250
vt 0.755947 0.888196
vt 0.522397 0.756509
vt 0.145654 0.701389
vt 0.179791 0.701644
vt 0.172432 0.963260
vt 0.330265 0.047875
vt 0.516691 0.048081
vt 0.327015 0.304477
vt 0.512476 0.313810
vt 0.599526 0.925198
vt 0.628793 0.909976
vt 0.636511 0.924816
vt 0.607244 0.940038
vt 0.365775 0.721424
vt 0.372920 0.706544
vt 0.405075 0.722059
vt 0.560199 0.048376
vt 0.646954 0.047286
vt 0.557450 0.314535
vt 0.654309 0.314115
vt 0.565610 0.859990
vt 0.336059 0.785267
vt 0.413612 0.898716
vt 0.408034 0.903400
vt 0.244224 0.702143
vt 0.340140 0.804105
vt 0.413973 0.805486
vt 0.405058 0.826467
vt 0.336488 0.977054
vt 0.398593 0.975559
vt 0.407809 0.993329
vt 0.336919 0.995021
vt 0.379925 0.573925
vt 0.379185 0.543271
vt 0.640801 0.567955
vt 0.641467 0.536101
vt 0.690483 0.046553
vt 0.698942 0.313234
vt 0.006631 0.701098
vt 0.039545 0.701020
vt 0.007215 0.954366
vt 0.382427 0.659332
vt 0.639777 0.660944
vt 0.430314 0.805732
vt 0.424173 0.992958
vt 0.731372 0.583577
vt 0.772685 0.544568
vt 0.767589 0.565126
vt 0.752184 0.579671
vt 0.699992 0.554117
vt 0.705551 0.531680
vt 0.722351 0.515817
vt 0.745065 0.511555
vt 0.629016 0.910385
vt 0.659127 0.910034
vt 0.658682 0.912921
vt 0.427673 0.733451
vt 0.755882 0.245863
vt 0.750797 0.228038
vt 0.755838 0.228026
vt 0.834591 0.079705
vt 0.765312 0.455525
vt 0.769908 0.432791
vt 0.750513 0.511070
vt 0.765543 0.490334
vt 0.755554 0.511070
vt 0.753942 0.348758
vt 0.758850 0.348596
vt 0.757683 0.603778
vt 0.734964 0.608042
vt 0.646549 0.014184
vt 0.560166 0.014827
vt 0.280164 0.368148
vt 0.280121 0.461013
vt 0.318235 0.668010
vt 0.271872 0.667822
vt 0.796901 0.549569
vt 0.791341 0.572000
vt 0.770523 0.857626
vt 0.041142 0.360411
vt 0.068519 0.360408
vt 0.068318 0.666906
vt 0.039527 0.666890
vt 0.516781 0.014598
vt 0.270790 0.451650
vt 0.315463 0.451714
vt 0.722746 0.606751
vt 0.339260 0.354261
vt 0.345628 0.544181
vt 0.000243 0.643668
vt 0.000243 0.460895
vt 0.180051 0.667330
vt 0.146418 0.360388
vt 0.182218 0.360395
vt 0.182776 0.316633
vt 0.200767 0.318106
vt 0.346804 0.574871
vt 0.009566 0.451572
vt 0.041149 0.451571
vt 0.145873 0.667145
vt 0.785249 0.582434
vt 0.768448 0.598295
vt 0.690093 0.013672
vt 0.280274 0.325878
vt 0.006504 0.666942
vt 0.350170 0.660768
vt 0.031814 0.460895
vt 0.031808 0.369746
vt 0.796356 0.537421
vt 0.839915 0.334205
vt 0.883297 0.334158
vt 0.172874 0.369779
vt 0.172670 0.325988
vt 0.254411 0.757513
vt 0.254574 0.746122
vt 0.249435 0.914266
vt 0.504888 0.839378
vt 0.505040 0.827599
vt 0.530712 0.852316
vt 0.504530 0.866821
vt 0.498357 0.963078
vt 0.498426 0.935307
vt 0.498360 0.974867
vt 0.505310 0.806971
vt 0.293769 0.742213
vt 0.317948 0.742334
vt 0.317825 0.758344
vt 0.309927 0.918381
vt 0.307469 0.934366
vt 0.530725 0.851314
vt 0.330413 0.014042
vt 0.324809 0.461088
vt 0.324520 0.644538
vt 0.699992 0.169245
vt 0.744025 0.169547
vt 0.492735 0.839223
vt 0.437121 0.838537
vt 0.373746 0.352973
vt 0.642841 0.350771
vt 0.339148 0.899271
vt 0.270148 0.316539
vt 0.252021 0.318046
vt 0.405019 0.834635
vt 0.404453 0.877520
vt 0.404582 0.870199
vt 0.397421 0.922330
vt 0.335010 0.868322
vt 0.329598 0.920881
vt 0.294086 0.702514
vt 0.318145 0.702626
vt 0.297628 0.971928
vt 0.336516 0.834799
vt 0.068255 0.701042
vt 0.065071 0.990127
vt 0.141027 0.991832
vt 0.537299 0.784701
vt 0.171107 0.992206
vt 0.557079 0.347956
vt 0.654593 0.348756
vt 0.271648 0.702353
vt 0.258681 0.997178
vt 0.294763 0.999757
vt 0.511442 0.347430
vt 0.674816 0.536719
vt 0.676109 0.350990
vt 0.699507 0.348124
vt 0.673597 0.568311
vt 0.005624 0.987986
vt 0.036452 0.989446
vt 0.673495 0.661193
vt 0.325294 0.337825
vt 0.492379 0.866661
vt 0.436788 0.865912
vt 0.786485 0.181971
vt 0.786456 0.170211
vt 0.803660 0.004441
vt 0.781476 0.170223
vt 0.781505 0.181983
vt 0.755724 0.182047
vt 0.755695 0.170287
vt 0.808538 0.004308
vt 0.833576 0.004150
vt 0.750683 0.182059
vt 0.750654 0.170299
vt 0.838533 0.004241
vt 0.374352 0.898341
vt 0.330131 0.901065
vt 0.365893 0.902026
vt 0.484950 0.507487
vt 0.379384 0.106023
vt 0.378791 0.165739
s 0
usemtl Material.001
f 121/1/1 122/2/1 123/3/1
f 145/4/2 146/5/2 147/6/2
f 53/7/3 45/8/3 46/9/3 54/10/3
f 381/11/3 49/12/3 50/13/3 382/14/3
f 48/15/4 55/16/3 56/17/3 47/18/5
f 443/19/3 59/20/3 60/21/3 444/22/3
f 329/23/3 57/24/3 58/25/3 330/26/3
f 59/20/3 53/7/3 54/10/3 60/21/3
f 467/27/3 61/28/3 62/29/3 468/30/3
f 55/16/3 63/31/3 64/32/3 56/17/3
f 61/33/3 51/34/3 52/35/3 62/36/3
f 131/37/3 67/38/3 68/39/3 132/40/3
f 45/8/3 69/41/6 70/42/7 46/9/3
f 72/43/8 65/44/9 66/45/10 71/46/11
f 152/47/3 101/48/3 102/49/3 153/50/3
f 109/51/12 48/52/13 47/53/14 110/54/15
f 115/55/16 103/56/16 104/57/16 116/58/16
f 101/59/17 105/60/17 106/61/17 102/49/17
f 105/62/18 107/63/18 108/64/18 106/61/18
f 107/65/19 109/66/20 110/54/21 108/64/19
f 65/67/22 111/68/23 112/69/24 66/70/22
f 111/71/25 113/72/26 114/73/26 112/69/27
f 113/74/28 115/75/28 116/58/28 114/73/28
f 315/76/29 119/77/3 120/78/3 316/79/30
f 119/80/31 72/81/32 71/82/33 120/78/31
f 69/83/34 117/84/35 118/85/35 70/86/36
f 165/87/3 131/37/3 132/40/3 166/88/3
f 103/89/3 137/90/3 138/91/3 104/57/3
f 143/92/37 142/93/37 141/94/37 144/95/37
f 142/96/38 140/97/39 139/98/40 141/94/38
f 122/2/41 147/6/41 146/5/41 123/3/41
f 237/99/3 152/100/3 153/50/3 238/101/3
f 239/102/42 155/103/43 154/104/44 240/105/42
f 241/106/45 159/107/45 158/108/45 242/109/45
f 51/34/3 165/87/3 166/88/3 52/35/3
f 353/110/2 146/111/2 145/112/2 354/113/2
f 156/114/46 154/104/47 155/115/48 157/116/46
f 159/107/49 156/114/49 157/117/49 158/108/49
f 199/118/50 203/119/50 204/120/50 200/121/50
f 389/122/51 185/123/51 186/124/51 390/125/51
f 203/119/50 180/126/50 179/127/50 204/120/50
f 218/128/52 206/129/52 205/130/52 217/131/52
f 225/132/53 219/133/53 220/134/53 226/135/53
f 207/136/54 221/137/55 222/138/55 208/139/56
f 223/140/50 227/141/50 228/142/50 224/143/50
f 229/144/3 231/145/3 232/146/3 230/147/3
f 227/141/57 232/146/57 231/145/57 228/142/57
f 230/148/58 223/140/58 224/143/58 229/144/58
f 249/149/3 237/150/3 238/101/3 250/151/3
f 251/152/59 239/153/59 240/105/59 252/154/59
f 253/155/60 241/106/60 242/109/60 254/156/60
f 226/135/50 243/157/50 244/158/50 225/132/50
f 137/159/3 249/160/3 250/151/3 138/91/3
f 140/161/61 251/162/62 252/154/62 139/98/63
f 144/95/64 253/155/64 254/156/64 143/92/64
f 202/163/65 207/136/66 208/139/67 201/164/68
f 243/157/69 222/138/69 221/165/69 244/158/69
f 197/166/70 220/134/1 219/133/1 198/167/1
f 263/168/50 255/169/50 256/170/50 264/171/50
f 287/172/50 257/173/50 258/174/50 288/175/50
f 277/176/50 259/177/50 260/178/50 278/179/50
f 257/180/50 265/181/50 266/182/50 258/183/50
f 267/184/50 269/185/50 270/186/50 268/187/50
f 259/177/50 267/188/50 268/189/50 260/178/50
f 269/190/50 263/191/50 264/171/50 270/186/50
f 273/192/50 271/193/50 272/194/50 274/195/50
f 265/196/50 273/197/50 274/195/50 266/182/50
f 271/198/50 261/199/50 262/200/50 272/201/50
f 285/202/50 277/176/50 278/179/50 286/203/50
f 327/204/50 281/205/50 282/206/50 328/207/50
f 255/169/50 279/208/50 280/209/50 256/170/50
f 281/210/50 275/211/50 276/212/50 282/213/50
f 275/214/50 283/215/50 284/216/50 276/217/50
f 289/218/50 285/202/50 286/203/50 290/219/50
f 261/199/50 289/218/50 290/219/50 262/200/50
f 291/220/71 293/221/71 294/222/71 292/223/71
f 293/224/50 295/225/50 296/226/50 294/227/50
f 295/228/50 297/229/50 298/230/50 296/231/50
f 297/232/50 299/233/50 300/234/50 298/235/50
f 299/236/72 301/237/72 302/238/72 300/239/72
f 301/237/73 218/240/73 217/241/73 302/242/73
f 206/243/74 291/220/74 292/244/74 205/245/74
f 117/246/3 307/247/75 308/248/76 118/85/3
f 279/249/50 322/250/50 323/251/50 280/252/50
f 341/253/77 335/254/77 336/255/77 342/256/77
f 334/257/78 336/258/78 335/259/78 333/260/78
f 307/247/79 315/76/80 316/79/81 308/248/82
f 147/261/2 287/262/2 288/175/2 145/263/2
f 283/264/1 122/265/1 121/266/1 284/216/1
f 321/267/83 323/251/83 322/250/83 320/268/83
f 325/269/84 327/204/84 328/207/84 324/270/84
f 343/271/85 334/272/85 333/273/85 344/274/85
f 198/275/1 121/276/1 123/277/1 197/166/86
f 342/278/50 343/279/50 344/274/50 341/253/50
f 180/280/2 350/281/2 349/282/2 179/127/2
f 200/121/1 351/283/1 352/284/1 199/285/1
f 201/164/87 353/110/2 354/113/2 202/286/88
f 49/12/3 329/23/3 330/26/3 50/13/3
f 351/283/3 356/287/3 355/288/3 352/289/3
f 379/290/89 371/291/90 372/292/90 380/293/91
f 356/287/3 349/282/3 350/294/3 355/288/3
f 377/295/92 379/290/93 380/296/94 378/297/92
f 67/38/3 381/11/3 382/14/3 68/39/3
f 332/298/95 386/299/95 385/300/95 331/301/95
f 185/302/96 332/303/96 331/301/96 186/124/96
f 371/291/3 387/304/3 388/305/3 372/292/3
f 387/304/2 385/300/2 386/306/2 388/307/2
f 378/308/97 389/309/97 390/125/97 377/295/97
f 411/310/3 398/311/3 397/312/3 412/313/3
f 398/314/3 395/315/3 396/316/3 397/312/3
f 407/317/50 404/318/50 403/319/50 408/320/50
f 404/318/50 399/321/50 400/322/50 403/319/50
f 408/323/1 411/324/1 412/313/1 407/317/1
f 395/325/3 414/326/3 413/327/3 396/316/3
f 399/321/50 416/328/50 415/329/50 400/322/50
f 416/328/2 413/327/2 414/330/2 415/331/2
f 430/332/50 428/333/50 427/334/50 429/335/50
f 428/333/2 432/336/2 431/337/2 427/338/2
f 429/339/1 433/340/1 434/341/1 430/332/1
f 433/342/3 431/343/3 432/336/3 434/341/3
f 57/344/3 439/345/3 440/346/3 58/347/3
f 439/345/3 443/19/3 444/22/3 440/346/3
f 449/348/98 448/349/98 447/350/98 450/351/98
f 448/349/99 452/352/99 451/353/99 447/354/99
f 450/355/100 454/356/100 453/357/100 449/348/100
f 454/358/101 451/359/101 452/352/101 453/357/101
f 63/31/3 461/360/3 462/361/3 64/32/3
f 463/362/99 460/363/99 459/364/99 464/365/99
f 460/366/3 465/367/3 466/368/3 459/364/3
f 461/360/3 467/27/3 468/30/3 462/361/3
f 464/365/50 469/369/50 470/370/50 463/371/50
f 469/369/100 466/368/100 465/372/100 470/373/100
f 17/374/50 164/375/50 162/376/50 11/377/50
f 16/378/102 10/379/102 161/380/102 163/381/102
f 6/382/50 147/383/50 164/375/50 17/374/50
f 5/384/103 16/378/103 163/381/103 146/385/103
f 9/386/50 15/387/50 24/388/50 21/389/50
f 8/390/104 20/391/104 23/392/104 14/393/104
f 17/374/50 11/377/50 27/394/50 30/395/50
f 16/378/105 29/396/105 26/397/105 10/379/105
f 32/398/50 3/399/50 15/387/50 38/400/50
f 31/401/3 37/402/3 14/393/3 2/403/3
f 38/400/50 15/387/50 9/386/50 36/404/50
f 37/402/106 35/405/106 8/390/106 14/393/106
f 3/399/107 32/398/107 44/406/107 325/407/107 336/258/107 334/257/107 320/408/107 41/409/107
f 2/403/108 40/410/108 319/411/108 333/260/108 335/259/108 326/412/108 43/413/108 31/401/108
f 445/414/2 74/415/2 59/20/2 443/19/2 447/416/2 451/417/2
f 446/418/1 452/352/1 448/349/1 444/22/1 60/21/1 73/419/1
f 80/420/2 78/421/2 45/8/2 53/7/2
f 79/422/1 54/10/1 46/9/1 77/423/1
f 437/424/99 376/425/99 329/23/99 49/12/99 82/426/99
f 438/427/100 81/428/100 50/13/100 330/26/100 375/429/100
f 86/430/109 135/431/109 394/432/110 402/433/110 130/434/111 65/435/112
f 85/436/113 66/45/114 129/437/115 401/438/116 393/439/116 136/440/113
f 74/415/117 80/420/117 53/7/117 59/20/117
f 73/419/118 60/21/118 54/10/118 79/422/118
f 465/441/1 88/442/1 458/443/1 470/444/1
f 466/368/2 469/369/2 457/445/2 87/446/2
f 92/447/99 383/448/99 381/11/99 67/38/99
f 91/449/100 68/39/100 382/14/100 384/450/100
f 96/451/119 305/452/119 304/453/120 69/454/121
f 95/455/122 70/86/123 303/456/124 306/457/122
f 98/458/100 89/459/100 455/460/100 63/31/100 55/16/100
f 97/461/99 56/17/99 64/32/99 456/462/99 90/463/99
f 78/421/125 96/464/125 69/41/126 45/8/125
f 77/423/127 46/9/127 70/42/128 95/465/127
f 88/466/99 100/467/99 51/34/99 61/33/99 458/468/99
f 87/469/100 457/470/100 62/36/100 52/35/100 99/471/100
f 83/472/129 98/458/129 55/16/129 48/15/130
f 84/473/131 47/18/132 56/17/131 97/461/131
f 93/474/133 86/430/133 65/435/134 72/475/135
f 94/476/136 71/46/137 66/45/138 85/436/136
f 100/467/99 167/477/99 165/87/99 51/34/99
f 99/471/100 52/35/100 166/88/100 168/478/100
f 236/479/100 244/480/100 221/481/100 207/482/139 202/483/139 150/484/100
f 235/485/99 151/486/99 201/164/139 208/139/139 222/138/99 243/157/99
f 180/487/99 203/488/99 167/477/99 100/467/99
f 179/127/100 99/471/100 168/478/100 204/120/100
f 178/489/1 188/490/1 86/430/1 93/474/1
f 177/491/2 94/476/2 85/436/2 187/492/2
f 174/493/1 196/494/1 98/458/1 83/472/1
f 173/495/2 84/473/2 97/461/2 195/496/2
f 176/497/99 180/487/99 100/467/99 88/466/99
f 175/498/100 87/469/100 99/471/100 179/127/100
f 172/499/2 194/500/2 96/464/2 78/421/2
f 171/501/1 77/423/1 95/465/1 193/502/1
f 196/494/100 190/503/100 89/459/100 98/458/100
f 195/496/99 97/461/99 90/463/99 189/504/99
f 383/448/99 92/447/99 192/505/99 386/506/99
f 384/450/100 385/300/100 191/507/100 91/449/100
f 190/503/1 176/508/1 88/442/1 465/441/1 460/509/1 89/459/1
f 189/504/2 90/463/2 459/364/2 466/368/2 87/446/2 175/510/2
f 170/511/140 184/512/140 80/420/140 74/415/140
f 169/513/141 73/419/141 79/422/141 183/514/141
f 185/515/99 389/516/99 437/424/99 82/426/99
f 186/124/100 81/428/100 438/427/100 390/125/100
f 184/512/142 172/499/142 78/421/142 80/420/142
f 183/514/143 79/422/143 77/423/143 171/501/143
f 115/517/100 143/518/100 137/519/100 103/520/100
f 116/58/99 104/57/99 138/91/99 144/95/99
f 65/521/144 130/522/145 140/523/146 111/524/147
f 66/70/148 112/69/149 139/98/150 129/525/151
f 111/524/152 140/523/153 142/526/100 113/527/100
f 112/69/154 114/73/99 141/94/99 139/98/155
f 113/527/100 142/526/100 143/518/100 115/517/100
f 114/73/99 116/58/99 144/95/99 141/94/99
f 69/454/156 304/453/157 307/528/158 117/529/159
f 70/86/160 118/85/161 308/248/162 303/456/163
f 409/530/100 245/531/100 251/532/100 140/523/164 130/522/165
f 410/533/99 129/525/166 139/98/167 252/154/99 246/534/99
f 143/518/100 254/535/100 249/536/100 137/519/100
f 144/95/99 138/91/99 250/151/99 253/155/99
f 317/537/100 314/538/100 424/539/100 420/540/100 305/452/100 310/541/100
f 318/542/99 309/543/99 306/457/99 419/544/99 423/545/99 313/546/99
f 182/547/2 170/511/2 74/415/2 445/414/2 442/548/2 75/549/2
f 181/550/1 76/551/1 441/552/1 446/418/1 73/419/1 169/513/1
f 133/553/99 92/447/99 67/38/99 131/37/99
f 134/554/100 132/40/100 68/39/100 91/449/100
f 135/431/100 248/555/100 398/556/100 411/557/100 394/432/168
f 136/440/99 393/439/169 412/313/99 397/312/99 247/558/99
f 122/559/50 32/398/50 38/400/50 128/560/50
f 123/561/170 127/562/170 37/402/170 31/401/170
f 128/560/50 38/400/50 36/404/50 126/563/50
f 127/562/3 125/564/3 35/405/3 37/402/3
f 150/565/171 83/566/171 48/567/172 149/568/173 405/569/174 391/570/174
f 151/571/175 392/572/176 406/573/176 148/574/177 47/575/178 84/576/175
f 199/577/99 192/505/99 92/447/99 133/553/99
f 200/121/100 134/554/100 91/449/100 191/507/100
f 158/578/100 105/579/100 101/580/100 152/581/100
f 159/107/99 153/50/99 102/49/99 106/61/99
f 149/582/179 48/583/180 109/584/181 155/585/182
f 148/586/183 154/104/184 110/54/185 47/53/186
f 155/585/187 109/584/188 107/587/100 157/588/100
f 154/104/189 156/114/99 108/64/99 110/54/190
f 157/588/100 107/587/100 105/579/100 158/578/100
f 156/114/99 159/107/99 106/61/99 108/64/99
f 202/483/191 174/589/100 83/590/100 150/484/100
f 201/164/192 151/486/99 84/591/99 173/592/99
f 167/477/99 133/553/99 131/37/99 165/87/99
f 168/478/100 166/88/100 132/40/100 134/554/100
f 147/383/50 122/559/50 128/560/50 164/375/50
f 146/385/193 163/381/193 127/562/193 123/561/193
f 164/375/50 128/560/50 126/563/50 162/376/50
f 163/381/3 161/380/3 125/564/3 127/562/3
f 354/593/100 346/594/100 174/589/100 202/483/194
f 353/110/99 201/164/195 173/592/99 345/595/99
f 352/596/99 359/597/99 192/505/99 199/577/99
f 351/283/100 200/121/100 191/507/100 360/598/100
f 368/599/2 365/600/2 170/511/2 182/547/2
f 367/601/1 181/550/1 169/513/1 366/602/1
f 188/603/100 198/604/100 135/605/100 86/606/100
f 187/607/99 85/608/99 136/609/99 197/166/196
f 370/610/197 364/611/197 172/499/197 184/512/197
f 369/612/198 183/514/198 171/501/198 363/613/198
f 33/614/100 121/266/100 198/604/100 188/603/100
f 31/615/199 187/607/199 197/166/200 123/277/199
f 365/600/201 370/610/201 184/512/201 170/511/201
f 366/602/202 169/513/202 183/514/202 369/612/202
f 194/616/100 310/541/100 305/452/100 96/451/100
f 193/617/99 95/455/99 306/457/99 309/543/99
f 386/506/99 192/505/99 359/597/99 388/618/99
f 385/300/100 387/304/100 360/598/100 191/507/100
f 324/270/100 42/619/100 178/620/100 317/537/100 339/621/100
f 326/622/99 340/623/99 318/542/99 177/624/99 43/625/99
f 362/626/100 357/627/100 190/503/100 196/494/100
f 361/628/99 195/496/99 189/504/99 358/629/99
f 364/611/2 373/630/2 194/500/2 172/499/2
f 363/613/1 171/501/1 193/502/1 374/631/1
f 348/632/99 350/633/99 180/487/99 176/497/99
f 347/634/100 175/498/100 179/127/100 349/282/100
f 346/635/1 362/626/1 196/494/1 174/493/1
f 345/636/2 173/495/2 195/496/2 361/628/2
f 203/488/99 199/577/99 133/553/99 167/477/99
f 204/120/100 168/478/100 134/554/100 200/121/100
f 317/537/100 178/620/100 93/637/100 314/538/100
f 318/542/99 313/546/99 94/638/99 177/624/99
f 215/639/203 217/131/203 205/130/203 209/640/203 211/641/203 213/642/203
f 216/643/204 214/644/204 212/645/204 210/646/204 206/129/204 218/128/204
f 229/144/99 224/143/99 228/142/99 231/145/99
f 230/147/100 232/146/100 227/141/100 223/140/100
f 135/605/100 198/604/100 219/647/100 225/648/100 248/649/100
f 136/609/99 247/650/99 226/135/99 220/134/99 197/166/205
f 236/651/100 150/565/100 391/570/206 414/652/100 395/653/100
f 235/654/99 396/316/99 413/327/99 392/572/207 151/571/99
f 242/655/100 158/578/100 152/581/100 237/656/100
f 241/106/99 238/101/99 153/50/99 159/107/99
f 417/657/100 149/582/208 155/585/209 239/658/100 233/659/100
f 418/660/99 234/661/99 240/105/99 154/104/210 148/586/211
f 244/480/100 236/479/100 248/649/100 225/648/100
f 243/157/99 226/135/99 247/650/99 235/485/99
f 248/555/100 236/651/100 395/653/100 398/556/100
f 247/558/99 397/312/99 396/316/99 235/654/99
f 254/535/100 242/655/100 237/656/100 249/536/100
f 253/155/99 250/151/99 238/101/99 241/106/99
f 245/531/100 233/659/100 239/658/100 251/532/100
f 246/534/99 252/154/99 240/105/99 234/661/99
f 300/234/212 215/639/212 213/642/212 298/235/212
f 299/233/213 297/232/213 214/662/213 216/663/213
f 256/170/2 1/664/2 13/665/2 264/171/2
f 255/666/1 263/667/1 15/387/1 3/399/1
f 268/189/99 19/668/99 7/669/99 260/178/99
f 267/188/100 259/177/100 9/386/100 21/389/100
f 296/226/214 211/641/214 209/640/214 294/227/214
f 295/225/215 293/224/215 210/670/215 212/671/215
f 258/174/100 4/672/100 145/263/100 288/175/100
f 257/673/99 287/674/99 147/383/99 6/382/99
f 290/219/99 160/675/99 12/676/99 262/200/99
f 289/218/100 261/199/100 11/377/100 162/376/100
f 264/171/100 13/665/100 22/677/100 270/186/100
f 263/678/99 269/679/99 24/388/99 15/387/99
f 302/238/216 217/131/216 215/639/216 300/239/216
f 301/237/217 299/236/217 216/680/217 218/240/217
f 272/194/1 25/681/1 28/682/1 274/195/1
f 271/683/2 273/684/2 30/395/2 27/394/2
f 260/178/99 7/669/99 34/685/99 278/179/99
f 259/177/100 277/176/100 36/404/100 9/386/100
f 284/216/100 121/266/100 33/614/100 276/217/100
f 283/686/99 275/687/99 32/398/99 122/559/99
f 282/206/100 42/619/100 324/270/100 328/207/100
f 281/688/99 327/689/99 325/407/99 44/406/99
f 274/195/100 28/682/100 18/690/100 266/182/100
f 273/691/99 265/692/99 17/374/99 30/395/99
f 289/218/100 162/376/100 126/563/100 285/202/100
f 290/219/99 286/203/99 124/693/99 160/675/99
f 298/230/218 213/642/218 211/641/218 296/231/218
f 297/229/219 295/228/219 212/694/219 214/695/219
f 280/209/2 39/696/2 1/664/2 256/170/2
f 279/697/1 255/666/1 3/399/1 41/409/1
f 262/200/99 12/676/99 25/698/99 272/201/99
f 261/199/100 271/198/100 27/394/100 11/377/100
f 266/182/1 18/690/1 4/699/1 258/183/1
f 265/700/2 257/701/2 6/382/2 17/374/2
f 294/222/220 209/640/220 205/130/220 292/223/220
f 293/221/221 291/220/221 206/243/221 210/702/221
f 276/212/1 33/703/1 42/704/1 282/213/1
f 275/705/2 281/706/2 44/406/2 32/398/2
f 278/179/99 34/685/99 124/693/99 286/203/99
f 277/176/100 285/202/100 126/563/100 36/404/100
f 82/426/99 436/707/99 332/708/99 185/515/99
f 81/428/100 186/124/100 331/301/100 435/709/100
f 425/710/100 312/711/222 315/712/223 307/528/224 304/453/225 421/713/100
f 426/714/99 422/715/99 303/456/226 308/248/227 316/79/228 311/716/229
f 314/538/230 93/637/230 72/717/231 312/711/232
f 313/546/233 311/716/234 71/82/235 94/638/233
f 378/718/236 182/719/236 75/720/236 376/425/236
f 377/295/237 375/429/237 76/721/237 181/722/237
f 312/711/238 72/717/239 119/723/240 315/712/241
f 311/716/242 316/79/243 120/78/244 71/82/245
f 270/186/2 22/677/2 19/724/2 268/187/2
f 269/725/1 267/726/1 21/389/1 24/388/1
f 42/704/1 33/703/1 188/490/1 178/489/1
f 43/727/246 177/491/246 187/492/246 31/728/246
f 424/539/100 314/538/100 312/711/247 425/710/100 427/729/100 431/730/100
f 423/545/99 432/336/99 428/333/99 426/714/99 311/716/248 313/546/99
f 357/627/1 348/731/1 176/508/1 190/503/1
f 358/629/2 189/504/2 175/510/2 347/732/2
f 280/252/100 323/251/100 321/267/100 39/733/100
f 279/734/99 41/409/99 320/408/99 322/735/99
f 342/736/100 339/621/100 317/537/100 310/541/100 337/737/100 343/738/100
f 341/253/99 344/274/99 338/739/99 309/543/99 318/542/99 340/623/99
f 320/268/249 334/740/249 343/738/249 337/737/249 321/267/249
f 319/741/250 338/739/250 344/274/250 333/273/250
f 380/742/251 368/743/252 182/719/252 378/718/252
f 379/290/253 377/295/254 181/722/254 367/744/254
f 325/269/255 324/270/255 339/621/255 342/736/255 336/745/255
f 335/254/256 341/253/256 340/623/256 326/622/256
f 160/675/99 124/693/99 352/596/99 355/746/99
f 161/747/100 356/287/100 351/283/100 125/748/100
f 145/263/100 4/672/100 346/594/100 354/593/100
f 146/111/257 353/110/257 345/595/257 5/749/257
f 124/693/99 34/685/99 359/597/99 352/596/99
f 125/748/100 351/283/100 360/598/100 35/750/100
f 13/665/2 1/664/2 364/611/2 370/610/2
f 14/751/258 369/612/258 363/613/258 2/752/258
f 7/669/99 19/668/99 368/743/99 380/742/259 372/753/99
f 8/754/100 371/291/100 379/290/260 367/744/100 20/755/100
f 22/677/100 13/665/100 370/610/100 365/600/100
f 23/756/261 366/602/261 369/612/261 14/751/261
f 28/682/1 25/681/1 348/731/1 357/627/1
f 29/757/2 358/629/2 347/732/2 26/758/2
f 34/685/99 7/669/99 372/753/99 388/618/99 359/597/99
f 35/750/100 360/598/100 387/304/100 371/291/100 8/754/100
f 1/664/2 39/696/2 373/630/2 364/611/2
f 2/752/1 363/613/1 374/631/1 40/759/1
f 18/690/100 28/682/100 357/627/100 362/626/100
f 16/760/262 361/628/262 358/629/262 29/757/262
f 25/698/99 12/676/99 350/633/99 348/632/99
f 26/761/100 347/634/100 349/282/100 10/762/100
f 4/699/1 18/690/1 362/626/1 346/635/1
f 5/763/263 345/636/263 361/628/263 16/760/263
f 12/676/99 160/675/99 355/746/99 350/633/99
f 10/762/100 349/282/100 356/287/100 161/747/100
f 19/724/2 22/677/2 365/600/2 368/599/2
f 20/764/1 367/601/1 366/602/1 23/756/1
f 376/425/99 75/720/99 57/24/99 329/23/99
f 375/429/100 330/26/100 58/25/100 76/721/100
f 436/707/99 383/448/99 386/506/99 332/708/99
f 435/709/100 331/301/100 385/300/100 384/450/100
f 436/707/99 82/426/99 49/12/99 381/11/99 383/448/99
f 435/709/100 384/450/100 382/14/100 50/13/100 81/428/100
f 421/713/100 429/765/100 427/729/100 425/710/100
f 422/715/99 426/714/99 428/333/99 430/332/99
f 420/540/100 424/539/100 431/730/100 433/766/100
f 419/544/99 434/341/99 432/336/99 423/545/99
f 402/433/168 394/432/264 411/557/100 408/767/100
f 401/438/169 407/317/99 412/313/99 393/439/265
f 305/452/100 420/540/100 433/766/100 429/765/100 421/713/100 304/453/266
f 306/457/99 303/456/267 422/715/99 430/332/99 434/341/99 419/544/99
f 130/434/268 402/433/264 408/767/100 409/768/100
f 129/437/269 410/769/99 407/317/99 401/438/265
f 245/770/100 403/771/100 400/772/100 233/773/100
f 246/774/99 234/775/99 399/321/99 404/318/99
f 233/773/100 400/772/100 415/776/100 417/777/100
f 234/775/99 418/778/99 416/328/99 399/321/99
f 245/770/100 409/768/100 408/767/100 403/771/100
f 246/774/99 404/318/99 407/317/99 410/769/99
f 149/568/270 417/777/100 415/776/100 405/569/271
f 148/574/272 406/573/273 416/328/99 418/778/99
f 405/569/206 415/776/100 414/652/100 391/570/271
f 406/573/207 392/572/273 413/327/99 416/328/99
f 39/733/100 321/267/100 337/737/100 310/541/100 194/616/100 373/779/100
f 40/780/99 374/781/99 193/617/99 309/543/99 338/739/99 319/741/99
f 389/516/99 378/718/99 376/425/99 437/424/99
f 390/125/100 438/427/100 375/429/100 377/295/100
f 63/31/1 455/460/1 463/782/1 461/360/1
f 64/32/2 462/361/2 464/365/2 456/462/2
f 75/549/2 442/548/2 454/783/2 450/784/2 439/345/2 57/344/2
f 76/551/1 58/347/1 440/346/1 449/348/1 453/357/1 441/552/1
f 442/548/2 445/414/2 451/417/2 454/783/2
f 441/552/1 453/357/1 452/352/1 446/418/1
f 439/345/2 450/784/2 447/416/2 443/19/2
f 440/346/1 444/22/1 448/349/1 449/348/1
f 467/27/1 461/360/1 463/782/1 470/444/1
f 468/30/2 469/369/2 464/365/2 462/361/2
f 89/459/1 460/509/1 463/782/1 455/460/1
f 90/463/2 456/462/2 464/365/2 459/364/2
f 61/28/1 467/27/1 470/444/1 458/443/1
f 62/29/2 457/445/2 469/369/2 468/30/2
