# Blender 4.2.1 LTS
# www.blender.org
mtllib segundo piso.mtl
o Piso_2
v -101.699364 63.946445 14.445886
v -101.699364 65.946602 14.445885
v -101.699364 63.946426 -104.690292
v -101.699364 65.946579 -104.690292
v -73.176788 63.946453 72.792488
v -73.176788 65.946762 72.792488
v -73.176788 63.946445 12.441337
v -73.176788 65.946602 14.446041
v -73.176788 65.946762 12.445884
v -73.176788 63.946426 -104.690292
v -73.176788 65.946739 -104.690292
v 75.711311 63.946453 72.792488
v 75.711311 65.946609 72.792488
v -16.567928 63.946453 72.792488
v -14.560472 65.946609 72.792488
v -16.560631 65.946762 72.792488
v 95.953125 63.946426 -104.690292
v 95.953125 65.946579 -104.690292
v 95.953125 63.946445 14.445886
v 95.953125 65.946602 14.445885
v -14.560631 63.946457 100.800507
v -14.560631 65.946609 100.800507
v -73.176788 63.946457 100.800507
v -73.176788 65.946609 100.800507
v 75.711311 63.946445 14.445886
v 75.711311 65.946762 14.445726
v 75.711311 65.946602 16.445885
v 75.711311 63.946426 -104.690292
v 75.711311 65.946739 -104.690292
v -14.560637 63.946426 -104.690292
v -14.560637 65.946739 -104.690292
v -16.560638 65.946602 14.446041
v -14.560637 63.946445 14.445886
v -14.560480 65.946915 12.445884
v 14.129362 63.946426 -104.690292
v 12.129362 65.946579 -104.690292
v 14.129519 65.946579 -104.690292
v 14.129364 63.946453 72.792488
v 16.129364 65.946609 72.792488
v 14.129208 65.946609 72.792488
v 14.129362 63.946445 14.445886
v 12.129362 64.946838 14.445885
v 14.129519 65.946602 14.445726
v 16.129362 65.946602 16.445885
v 75.711311 114.571640 14.445719
v 75.711311 114.571640 16.445877
v 16.129364 114.571655 72.792480
v 14.129208 114.571655 72.792480
v 14.129519 114.571640 14.445719
v 13.129283 114.571640 14.445877
v 16.129362 114.571640 16.445877
v -73.176788 114.588692 12.445876
v -73.176788 114.588692 14.446033
v -14.560472 114.588707 72.792480
v -16.560631 114.588707 72.792480
v -14.560480 114.588692 12.445876
v -16.560638 114.588692 14.446033
v 12.129362 114.598900 -104.690300
v 14.129519 114.598900 -104.690300
vn -0.2783 -0.9128 0.2989
vn -0.9045 0.3015 0.3015
vn -0.6869 0.7267 -0.0008
vn 0.2988 -0.9131 0.2776
vn 0.3073 0.3017 0.9025
vn -0.0009 0.7268 0.6868
vn 0.3015 -0.9045 0.3015
vn 0.7071 0.7071 -0.0000
vn 0.9045 0.3015 0.3015
vn -0.0000 -0.7071 -0.7071
vn -0.2983 0.3053 -0.9043
vn 0.3015 0.3015 -0.9045
vn -0.0000 -0.7071 0.7071
vn 0.3015 0.3015 0.9045
vn -0.2984 0.2971 0.9070
vn 0.3016 0.9045 -0.3014
vn -0.7044 0.7097 0.0106
vn 0.3015 0.9045 0.3015
vn 0.5991 -0.5744 0.5578
vn 0.5998 0.5730 0.5585
vn 0.5774 -0.5774 0.5774
vn 0.5774 0.5774 0.5774
vn 0.5774 -0.5774 -0.5774
vn -0.0000 0.7071 -0.7071
vn 0.5774 0.5773 -0.5774
vn -0.7071 -0.7071 -0.0000
vn -0.5774 -0.5774 0.5774
vn -0.5774 0.5773 0.5774
vn -0.7071 0.7071 -0.0000
vn 0.5774 -0.5773 0.5774
vn 0.5773 0.5774 0.5773
vn -0.5583 -0.5742 0.5988
vn -0.5587 0.5733 0.5993
vn -0.5774 -0.5774 -0.5774
vn -0.5774 0.5773 -0.5774
vn 0.0066 0.7078 -0.7064
vn 0.5774 0.5774 -0.5774
vn 0.5774 0.5773 0.5773
vn -0.5683 0.5805 0.5831
vn 0.5773 0.5774 -0.5773
vn -0.5773 0.5773 -0.5774
vn -0.5774 0.5774 0.5773
vn -0.3015 0.9045 0.3015
vn -0.5774 0.5774 0.5774
vn -0.5772 0.5801 -0.5747
vn 0.3113 0.9005 -0.3037
vn -0.0000 -1.0000 -0.0000
vn -0.6900 0.7237 0.0110
vn 0.5773 0.5774 -0.5774
vt 0.966845 0.472296
vt 0.961679 0.477474
vt 0.961678 0.472307
vt 0.225202 0.000281
vt 0.230390 0.005445
vt 0.225224 0.005448
vt 0.468800 0.156041
vt 0.463633 0.156044
vt 0.463631 0.150878
vt 0.304520 0.469050
vt 0.299354 0.463883
vt 0.304520 0.463883
vt 0.304493 0.000244
vt 0.309662 0.005408
vt 0.304495 0.005410
vt 0.653166 0.159234
vt 0.650585 0.159232
vt 0.658331 0.154068
vt 0.805121 0.700160
vt 0.810286 0.627814
vt 0.815440 0.628183
vt 0.810274 0.700528
vt 0.468728 0.005332
vt 0.463562 0.005334
vt 0.515870 0.469049
vt 0.463585 0.469050
vt 0.463585 0.463883
vt 0.515870 0.463883
vt 0.966846 0.628182
vt 0.966846 0.700527
vt 0.961680 0.700527
vt 0.961679 0.628182
vt 0.463586 0.150988
vt 0.515870 0.150988
vt 0.515870 0.156155
vt 0.463586 0.156155
vt 0.521037 0.156155
vt 0.521036 0.463883
vt 0.005696 0.151001
vt 0.079370 0.156166
vt 0.079008 0.161320
vt 0.005334 0.156155
vt 0.079008 0.469050
vt 0.005334 0.469049
vt 0.005334 0.463883
vt 0.079008 0.463883
vt 0.000168 0.463883
vt 0.000168 0.156154
vt 0.463559 0.000168
vt 0.230413 0.469050
vt 0.230413 0.463883
vt 0.961680 0.705693
vt 0.810274 0.705694
vt 0.812231 0.159234
vt 0.812231 0.154068
vt 0.658149 0.008494
vt 0.652981 0.008500
vt 0.783773 0.008336
vt 0.658142 0.003326
vt 0.783767 0.003168
vt 0.937829 0.154068
vt 0.937829 0.159234
vt 0.674752 0.655334
vt 0.622929 0.796936
vt 0.618991 0.795492
vt 0.669152 0.655327
vt 0.622720 0.509458
vt 0.618770 0.510833
vt 0.621434 0.503567
vt 0.764704 0.472296
vt 0.765990 0.478187
vt 0.766383 0.828803
vt 0.765073 0.834702
vt 0.621619 0.802834
vt 0.521431 0.465354
vt 0.647218 0.466788
vt 0.647159 0.471960
vt 0.521372 0.470525
vt 0.652388 0.466801
vt 0.230414 0.161321
vt 0.230413 0.776778
vt 0.079008 0.771600
vt 0.309731 0.150951
vt 0.463586 0.927487
vt 0.304520 0.927487
vt 0.304520 0.776778
vt 0.463586 0.776778
vt 0.230414 0.999832
vt 0.079008 0.999832
vt 0.079008 0.927487
vt 0.225229 0.927487
vt 0.005334 0.776778
vt 0.515870 0.776778
vt 0.815439 0.477474
vt 0.299402 0.156144
vt 0.522425 0.157550
vt 0.527227 0.006618
vt 0.783956 0.153910
vt 0.304520 0.156155
vt 0.937829 0.318300
vt 0.812231 0.318300
vt 0.812231 0.000168
vt 0.937829 0.000168
vt 0.804785 0.655932
vt 0.540059 0.654834
vt 0.521372 0.532440
vt 0.521372 0.773281
vt 0.778699 0.159523
vt 0.777991 0.467090
s 1
f 7/1/1 8/2/2 9/3/3
f 14/4/4 15/5/5 16/6/6
f 25/7/7 26/8/8 27/9/9
f 35/10/10 36/11/11 37/12/12
f 38/13/13 39/14/14 40/15/15
f 49/16/16 50/17/17 51/18/18
f 21/19/19 14/20/4 16/21/6 22/22/20
f 12/23/21 25/7/7 27/9/9 13/24/22
f 17/25/23 28/26/10 29/27/24 18/28/25
f 5/29/26 23/30/27 24/31/28 6/32/29
f 25/33/7 19/34/30 20/35/31 26/36/8
f 19/37/30 17/38/23 18/28/25 20/35/31
f 1/39/32 7/40/1 9/41/3 2/42/33
f 10/43/10 3/44/34 4/45/35 11/46/24
f 7/1/1 5/29/26 6/32/29 8/2/2
f 3/47/34 1/48/32 2/42/33 4/45/35
f 38/13/13 12/49/21 13/24/22 39/14/14
f 30/50/10 10/43/10 11/46/24 31/51/36
f 23/52/27 21/53/19 22/22/20 24/31/28
f 35/10/10 30/50/10 31/51/36 36/11/11
f 28/26/10 35/10/10 37/12/12 29/27/24
f 14/4/4 38/13/13 40/15/15 15/5/5
f 45/54/37 49/16/16 51/18/18 46/55/22
f 47/56/38 51/18/18 50/17/17 48/57/39
f 39/58/14 47/56/38 48/59/39 40/60/15
f 46/55/22 27/61/9 26/62/8 45/54/37
f 56/63/40 52/64/41 53/65/42 57/66/43
f 54/67/22 56/63/40 57/66/43 55/68/44
f 55/69/44 16/70/6 15/71/5 54/67/22
f 52/64/41 9/72/3 8/73/2 53/74/42
f 36/75/11 58/76/45 59/77/40 37/78/12
f 49/16/16 59/79/40 58/76/45 50/17/17
f 31/51/36 11/46/24 9/41/3 34/80/46
f 30/50/10 33/81/47 7/82/1 10/43/10
f 13/24/22 27/9/9 44/83/22 39/14/14
f 12/84/21 38/85/13 41/86/47 25/87/7
f 22/22/20 16/21/6 6/32/29 24/31/28
f 21/88/19 23/89/27 5/90/26 14/91/4
f 2/42/33 9/41/3 11/46/24 4/45/35
f 1/92/32 3/44/34 10/43/10 7/82/1
f 18/28/25 29/27/24 26/36/8 20/35/31
f 17/25/23 19/93/30 25/87/7 28/26/10
f 6/32/29 16/21/6 32/94/42 8/2/2
f 5/90/26 7/82/1 33/81/47 14/91/4
f 36/11/11 31/51/36 34/80/46 42/95/48
f 35/10/10 41/86/47 33/81/47 30/50/10
f 50/17/17 42/96/48 40/97/15 48/57/39
f 51/18/18 47/56/38 39/58/14 44/98/22
f 15/5/5 40/15/15 42/95/48 34/80/46
f 14/91/4 33/81/47 41/86/47 38/85/13
f 29/27/24 37/12/12 43/99/49 26/36/8
f 28/26/10 25/87/7 41/86/47 35/10/10
f 45/54/37 26/62/8 43/100/49 49/101/16
f 46/55/22 51/102/18 44/103/22 27/61/9
f 54/67/22 15/71/5 34/104/46 56/63/40
f 55/68/44 57/66/43 32/105/42 16/106/6
f 53/65/42 8/107/2 32/105/42 57/66/43
f 52/64/41 56/63/40 34/104/46 9/72/3
f 59/79/40 49/16/16 43/108/49 37/109/12
f 58/76/45 36/75/11 42/96/48 50/17/17
