# Blender 4.2.1 LTS
# www.blender.org
mtllib techo.mtl
o Techo
v -80.236252 166.641479 -3.823531
v 82.278633 166.274857 -3.823531
v -80.236252 166.641464 -85.278671
v 82.278633 166.252396 -85.278671
v 35.254215 165.194214 -3.823531
v 35.254215 165.951080 -85.278671
v 25.771772 166.017868 -85.278671
v 25.771780 165.931259 -3.823531
v 35.254215 165.194229 75.431107
v 25.771780 165.194229 75.431107
v 35.254215 165.519028 14.478800
v 25.771780 165.519028 14.478804
v 76.022430 114.343552 75.431114
v 39.978607 154.747345 75.431114
v 42.174664 149.777023 75.431114
v 48.146244 139.950592 75.431114
v 58.165554 129.874252 75.431114
v -14.544243 114.701355 75.431107
v 3.058999 129.928726 75.431107
v 12.876614 139.832794 75.431107
v 19.002754 149.865082 75.431107
v 21.260971 154.880020 75.431114
v -42.364243 131.641693 73.420395
v -42.612823 132.337677 4.293283
v -14.544243 114.701355 103.246147
v -42.364243 131.503510 103.246147
v -45.415878 131.635254 73.420395
v -45.664459 132.331238 4.293283
v -45.415878 131.497070 103.246147
v -73.142487 114.721352 14.860914
v -73.142487 114.721367 103.246147
v -14.526842 114.449249 14.931543
v -83.602356 167.401047 -86.706680
v -83.602356 167.401047 -2.395528
v 35.937481 167.401047 -2.395528
v 84.610680 167.401047 -2.395528
v 84.610680 167.401047 -86.706680
v 26.122561 167.401047 -86.706680
v 26.122568 167.401047 -2.395528
v 35.937481 167.401047 -86.706680
v 24.623802 167.379196 77.165894
v 36.402191 167.379196 77.165894
v 36.402191 167.379181 14.351536
v 24.623802 167.379181 14.351542
v -41.676044 133.009399 4.701392
v -41.676044 133.009415 73.895760
v -41.676044 133.009430 105.027260
v -46.109848 133.002686 4.701392
v -46.109848 133.002686 73.895760
v -46.109848 133.002686 105.027260
v -74.603180 113.782349 73.420395
v -74.603180 113.782333 15.778425
v -74.603180 113.782349 103.246147
v -13.088495 113.892609 75.431107
v -13.088495 113.892609 103.246147
v -14.544243 114.701355 73.414368
v -13.088495 113.892609 73.414368
v 77.663498 113.088623 75.431114
v 77.663498 113.088608 21.100565
v 77.663849 113.100189 16.606644
v 97.718513 113.075714 16.509935
v 97.692917 113.089401 -106.155388
v -104.393494 112.555725 -106.459831
v -103.824455 112.631378 16.751719
v -80.484840 164.633102 -85.762436
v -80.484840 165.890213 -4.307296
v 35.005638 164.492706 -4.307296
v 82.030045 165.111115 -4.307296
v 82.028969 165.271576 -85.771881
v 25.523193 164.633102 -85.762436
v 35.005638 164.650238 -85.762436
v 25.523201 164.595932 -4.307296
v 35.005638 164.293030 14.377146
v 25.523201 164.293030 14.377150
v 25.523201 164.231964 74.947342
v 35.005638 164.231964 74.947342
v 75.773857 115.039551 74.947350
v 75.773857 115.039536 20.616800
v 39.730030 155.443329 14.377148
v 57.916977 130.570251 74.947350
v 41.926083 150.473007 14.377150
v 39.730030 155.443344 74.947350
v 41.926083 150.473022 74.947350
v 47.897663 140.646591 15.272213
v 47.897663 140.646591 74.947350
v 57.916977 130.570236 16.665442
v -14.792824 115.397331 14.377151
v -14.792824 115.397346 74.947342
v 21.012392 155.576004 74.947350
v 2.810419 130.624710 14.377153
v 2.810419 130.624725 74.947342
v 12.628032 140.528793 74.947342
v 18.754173 150.561081 74.947342
v 21.012392 155.576004 14.377150
v 18.754173 150.561066 14.377150
v 12.628032 140.528793 14.377151
v -42.612823 132.337692 72.936623
v -42.612823 132.337692 102.762390
v -14.792824 115.397346 102.762390
v -45.664459 132.331253 72.936623
v -45.664459 132.331268 102.762390
v -73.391068 115.417351 14.243948
v -73.391068 115.417366 72.936623
v -73.391068 115.417366 102.762390
v 28.475628 115.180687 -104.657990
v -102.168777 115.180687 -104.657990
v 95.605385 115.180687 -104.657990
v 40.161800 115.180687 -104.657990
v 25.758736 155.414780 -88.932838
v 38.490105 125.656448 -100.021500
v 91.070671 125.656448 -100.021500
v -82.743286 155.414780 -88.932838
v -95.425835 125.673630 9.051756
v -102.114548 115.202637 14.377432
v 91.065536 125.714645 9.091877
v 95.598831 115.255066 14.428707
v 27.491341 125.656448 -100.021500
v 26.680607 135.644104 -95.851067
v 26.111002 145.427338 -92.205605
v 35.464264 155.414780 -88.932854
v 36.108414 145.427338 -92.205605
v 37.103184 135.644104 -95.851067
v 83.104126 155.414780 -88.932854
v 84.718384 145.427338 -92.205605
v 87.337433 135.644104 -95.851067
v -95.468277 125.656448 -100.021500
v -89.837532 135.644104 -95.851067
v -85.654114 145.427338 -92.205605
v -82.732681 155.419083 -1.913181
v -85.633179 145.435822 0.869380
v -89.806137 135.656815 4.474170
v 83.102844 155.429352 -1.903148
v 84.715851 145.456055 0.889164
v 87.333649 135.687164 4.503849
v 19.548254 155.370438 -4.307297
v 12.622227 145.318497 -2.887646
v 5.144568 135.634323 0.555597
v -4.171858 125.766266 4.967454
v -14.775423 115.407875 14.447777
v 40.794968 155.138596 -4.307296
v 47.849197 145.457275 -2.105463
v 55.341270 135.727295 1.072814
v 63.952293 125.656784 6.104805
v 75.774208 115.051117 14.764986
v -74.851761 114.478333 15.176632
v -74.851761 114.478348 72.936623
v -74.851761 114.478348 102.762390
v -13.337077 114.588600 102.762390
v -13.337077 114.588600 74.947342
v -13.337077 114.588600 72.930595
v -14.792824 115.397346 72.930595
v 77.414917 113.784615 74.947350
v 77.414917 113.784599 20.616800
v 77.415268 113.796188 16.122877
v 97.469933 113.771713 16.026169
v 97.444336 113.785400 -106.639153
v -104.642075 113.251724 -106.943596
v -104.073036 113.327370 16.267954
v -80.038757 167.271667 -4.275051
v 81.987984 166.884628 -4.252141
v -79.890373 167.155869 -84.772949
v 81.856903 166.783600 -84.854462
v 34.871647 165.671875 -4.338773
v 35.255360 166.119171 -84.496536
v 25.772511 166.235321 -84.508789
v 26.193798 166.346115 -4.361862
v 34.597572 165.602036 75.224945
v 26.415585 165.544922 75.110916
v 34.503872 165.796478 14.480740
v 26.569193 165.582779 14.487049
v 75.637154 113.855850 74.927429
v 39.249046 154.419128 75.434006
v 41.504837 149.392670 75.222313
v 47.629890 139.488388 75.031441
v 57.732224 129.393005 74.961403
v -13.998784 115.267258 75.282036
v 3.372694 129.587540 74.779045
v 13.247828 139.522537 74.793976
v 19.461388 149.609375 74.827560
v 21.828426 154.619324 74.931076
v -42.747849 132.434509 73.420395
v -42.681278 132.364914 5.071738
v -14.381152 114.968811 102.510040
v -42.556133 132.303223 102.839256
v -45.639275 132.403442 73.420395
v -45.708637 132.434525 4.964577
v -45.273300 132.311264 102.842804
v -73.449944 115.348656 15.250740
v -73.339622 115.037338 102.538124
v -83.052589 167.269089 -86.140694
v -83.060539 167.260406 -2.967069
v 35.510010 166.985733 -2.929172
v 84.079224 167.200439 -2.958832
v 84.040375 167.259064 -86.163910
v 26.125282 167.116928 -85.958832
v 26.605515 166.950302 -2.846725
v 35.937012 167.106110 -85.963028
v 25.138300 167.154373 76.596031
v 35.887695 167.154373 76.596031
v 35.719894 166.961502 14.354908
v 25.283125 166.926376 14.367744
v -42.237507 132.667618 5.157400
v -42.356777 132.589172 73.895760
v -42.168259 132.821198 104.425346
v -45.547264 132.662720 5.157382
v -45.427757 132.584656 73.895760
v -45.616905 132.816071 104.425453
v -74.345306 114.539650 73.420395
v -74.402214 114.544403 15.570669
v -74.353836 114.284233 102.675232
v -13.605927 114.502739 75.431107
v -13.496810 114.314552 102.702782
v -13.999858 115.234146 73.658859
v -13.550163 114.470398 73.719353
v 77.019699 112.684891 75.181084
v 76.910164 112.819382 21.100328
v 77.139709 112.640366 16.214420
v 97.294479 112.592979 16.033316
v 96.983521 113.093048 -105.785614
v -103.869385 113.015556 -106.067574
v -103.434830 112.331795 16.120497
v -79.949661 164.354675 -85.237015
v -79.853386 165.819046 -4.793304
v 34.425739 164.477936 -4.858203
v 81.438354 165.251694 -4.827035
v 81.509315 165.062180 -85.200821
v 25.522915 164.381790 -85.002937
v 35.006618 164.376877 -85.010590
v 26.077433 164.507065 -4.877321
v 34.213005 164.184830 14.372019
v 26.273052 164.014359 14.369024
v 26.258734 163.938370 74.834236
v 34.243641 164.058731 75.118675
v 75.291130 114.456558 74.688309
v 75.268097 114.419693 20.613499
v 39.028610 155.059204 14.355810
v 57.389584 130.016495 74.712357
v 41.240494 150.063370 14.330715
v 39.024822 155.101639 75.108368
v 41.211449 150.118332 74.888298
v 47.272049 140.151276 15.215017
v 47.261665 140.183685 74.801659
v 57.364700 129.992355 16.633078
v -14.821613 114.792168 14.899593
v -14.723449 114.620483 74.769379
v 21.714819 155.240601 74.762688
v 3.358425 130.044083 14.326609
v 3.296532 130.107758 74.577980
v 13.197446 140.096146 74.588760
v 19.402708 150.227203 74.618828
v 21.715458 155.195221 14.350540
v 19.441715 150.154999 14.328268
v 13.251891 140.031769 14.315765
v -42.360287 131.862091 4.884928
v -42.107655 131.579163 72.936623
v -42.161823 131.751526 102.457413
v -15.167665 114.758720 102.459656
v -45.815575 131.851196 4.915155
v -45.931248 131.438858 72.936623
v -45.873230 131.620911 102.459396
v -73.050438 115.121788 15.037914
v -72.966431 114.739372 72.936623
v -73.016403 114.818512 102.386894
v 28.475868 114.688400 -104.027390
v -101.821373 114.540390 -104.327332
v 95.256966 114.548378 -104.313316
v 40.162045 114.688400 -104.027390
v 25.758797 155.160187 -88.174431
v 38.490105 125.340416 -99.286568
v 90.585388 125.246765 -99.535019
v -82.222870 155.102173 -88.411827
v -95.006180 125.150742 8.615311
v -101.773239 114.566933 14.031898
v 90.607674 125.258102 8.620794
v 95.271065 114.622467 14.064861
v 27.491341 125.340416 -99.286568
v 26.680607 135.350250 -95.106987
v 26.111002 145.163055 -91.450516
v 35.464764 155.162369 -88.173714
v 36.108414 145.163055 -91.450516
v 37.103184 135.350250 -95.106987
v 82.560051 155.163498 -88.402901
v 84.191010 145.125092 -91.685493
v 86.834412 135.276749 -95.349052
v -95.031471 125.183990 -99.546112
v -89.377098 135.212860 -95.359093
v -85.159286 145.062180 -91.693947
v -82.205551 155.186768 -2.468310
v -85.140991 145.097473 0.337156
v -89.355957 135.222687 3.975301
v 82.565346 155.251801 -2.468451
v 84.205811 145.183853 0.336207
v 86.857368 135.317780 3.977811
v 19.988451 155.024170 -4.878551
v 13.015138 144.920639 -3.459770
v 5.492424 135.146240 0.025711
v -3.883881 125.212051 4.467542
v -14.973082 114.805008 13.960463
v 40.363953 154.781128 -4.878648
v 47.469414 145.043488 -2.675160
v 55.014320 135.244720 0.524886
v 63.659969 125.088036 5.624107
v 75.491135 114.412346 14.375320
v -74.333282 114.460960 15.443800
v -74.094460 114.220474 72.936623
v -74.165558 114.191353 102.467850
v -13.881459 114.055809 102.517899
v -13.947211 114.071175 74.947342
v -13.732471 114.451630 73.612434
v -14.384509 114.975403 73.473961
v 76.824142 113.290993 74.729828
v 76.768814 113.312851 20.616152
v 77.095993 113.163017 15.752535
v 97.015747 113.221855 15.663721
v 97.000946 113.577942 -106.006409
v -104.091805 113.130669 -106.375664
v -103.460625 113.001732 15.869322
v -14.815987 112.870613 15.036884
v -14.834968 112.350922 15.345352
vn -0.0014 -0.2101 -0.9777
vn -0.0009 -0.2718 -0.9623
vn -0.0034 0.3551 -0.9348
vn 0.0006 0.3687 -0.9296
vn -0.4324 -0.6430 -0.6321
vn -0.2469 -0.7877 0.5644
vn -0.6773 0.1758 0.7144
vn -0.6872 0.1649 -0.7075
vn 0.3633 -0.7622 0.5358
vn 0.5272 -0.6640 -0.5303
vn 0.7129 0.1775 -0.6785
vn 0.6643 0.2508 0.7041
vn -0.9968 -0.0797 -0.0103
vn -0.4469 -0.6036 0.6602
vn -0.6431 0.2810 0.7123
vn -0.8242 0.5660 -0.0203
vn -0.6769 -0.4497 0.5828
vn -0.8874 0.4593 -0.0395
vn 0.6204 -0.7046 0.3445
vn 0.8365 -0.5479 -0.0031
vn 0.8663 0.4996 -0.0025
vn 0.6131 0.2434 0.7516
vn -0.8847 -0.4661 -0.0009
vn -0.6180 -0.7067 0.3445
vn -0.6140 0.2414 0.7515
vn -0.8535 0.5212 -0.0009
vn 0.6462 -0.3333 0.6865
vn 0.5744 -0.2113 0.7909
vn 0.5677 0.6873 0.4531
vn 0.3991 0.7915 0.4629
vn 0.0003 0.3141 -0.9494
vn -0.6690 0.3480 -0.6568
vn -0.3117 -0.6273 0.7136
vn 0.2535 -0.3994 0.8811
vn -0.4657 0.7447 0.4781
vn -0.8578 0.3587 0.3682
vn 0.7396 -0.1757 0.6497
vn 0.6496 0.2617 -0.7138
vn 0.0653 0.1315 0.9892
vn 0.6323 -0.3246 0.7034
vn 0.7385 0.6170 0.2719
vn 0.6034 0.7287 0.3238
vn -0.3223 -0.9466 -0.0000
vn -0.9466 0.3223 -0.0000
vn 0.1659 0.1648 0.9723
vn 0.0949 0.1140 0.9889
vn 0.6592 0.6922 0.2937
vn 0.7950 0.5786 0.1821
vn 0.6292 -0.5526 0.5466
vn 0.7249 0.0185 0.6886
vn -0.6928 0.1111 0.7125
vn -0.9373 0.3483 0.0102
vn -0.3763 -0.9265 -0.0000
vn -0.8052 0.5930 -0.0000
vn -0.7893 0.0889 0.6075
vn 0.9379 -0.3468 -0.0024
vn 0.6174 -0.5188 0.5914
vn 0.9525 0.2165 -0.2142
vn 0.9908 0.1353 0.0064
vn 0.6598 -0.1004 0.7447
vn 0.9481 0.3179 0.0005
vn 0.3377 0.9413 0.0002
vn 0.2690 0.8806 0.3900
vn 0.9310 -0.3650 0.0091
vn 0.8076 0.5898 0.0006
vn -0.9194 0.3670 0.1414
vn -0.2847 -0.0862 -0.9547
vn 0.4218 0.2318 0.8765
vn 0.8933 0.4434 0.0738
vn -0.2879 -0.0562 0.9560
vn 0.0116 0.2149 0.9766
vn -0.1640 0.6599 0.7333
vn -0.7664 0.3833 0.5155
vn -0.9481 -0.3179 -0.0005
vn -0.5146 -0.1787 0.8386
vn -0.5332 0.7478 0.3956
vn -0.6279 0.7783 -0.0003
vn 0.6468 -0.7627 -0.0000
vn 0.5771 -0.7222 -0.3812
vn 0.4942 0.1712 -0.8523
vn 0.7627 0.6468 -0.0000
vn 0.0737 -0.0355 0.9966
vn -0.0715 0.0336 0.9969
vn -0.8780 0.4193 0.2308
vn -0.8107 0.4174 0.4106
vn -0.4453 -0.8569 -0.2597
vn -0.6878 0.1513 -0.7099
vn -0.6805 -0.6660 -0.3056
vn -0.6467 -0.7542 -0.1138
vn -0.0867 0.9711 0.2225
vn -0.5104 0.5274 -0.6792
vn 0.1490 -0.1027 0.9835
vn -0.7118 0.5408 0.4482
vn -0.2069 -0.3409 0.9170
vn 0.4636 0.7913 0.3986
vn 0.5882 0.2614 0.7653
vn 0.8815 0.4271 -0.2013
vn 0.1497 -0.1607 0.9756
vn -0.6076 0.6462 0.4617
vn 0.8314 -0.4833 -0.2743
vn 0.5542 0.2593 -0.7909
vn 0.5104 -0.5274 0.6792
vn 0.6805 0.6660 0.3056
vn 0.0057 0.8159 0.5782
vn -0.0016 0.9212 0.3892
vn -0.0544 -0.9627 0.2652
vn -0.0504 -0.9280 0.3692
vn -0.0233 -0.6092 0.7927
vn 0.8529 0.5221 -0.0042
vn 0.6431 0.2810 0.7123
vn 0.9365 0.3506 -0.0078
vn 0.8416 0.4194 -0.3404
vn -0.7774 0.4903 -0.3941
vn 0.4083 0.2133 -0.8876
vn -0.4631 0.2574 -0.8481
vn -0.0012 0.3417 -0.9398
vn 0.2877 -0.0894 -0.9535
vn 0.6903 0.7224 0.0405
vn 0.6322 0.7748 0.0041
vn 0.8768 0.4802 0.0267
vn 0.8570 0.5121 0.0580
vn 0.7820 0.6191 0.0715
vn -0.6850 0.7258 0.0632
vn -0.2500 0.9616 -0.1134
vn -0.8788 0.4760 0.0333
vn -0.8594 0.5076 0.0611
vn -0.7798 0.6213 0.0767
vn -0.5308 0.8475 -0.0000
vn -0.5683 0.7995 -0.1942
vn -0.0000 0.3950 -0.9187
vn -0.0003 0.6154 -0.7882
vn -0.0003 0.6154 -0.7883
vn 0.6066 0.5121 -0.6081
vn 0.4355 0.7904 -0.4308
vn -0.5460 0.5906 -0.5942
vn -0.4343 0.8004 -0.4133
vn -0.5246 0.6536 0.5456
vn -0.4266 0.7946 0.4319
vn 0.6719 0.2219 0.7066
vn 0.6806 0.3130 -0.6624
vn 0.4097 0.7908 0.4548
vn 0.5723 0.5707 0.5889
vn 0.6288 0.4592 -0.6275
vn 0.5954 0.4617 0.6575
vn 0.6592 0.3778 -0.6501
vn 0.6376 0.3402 0.6912
vn -0.6505 0.3907 -0.6513
vn -0.6589 0.2904 0.6939
vn -0.6185 0.4565 -0.6396
vn -0.6152 0.4229 0.6653
vn -0.5755 0.5390 -0.6150
vn -0.5627 0.5427 0.6236
vn -0.0001 0.3182 -0.9480
vn -0.0000 0.3303 -0.9439
vn -0.0000 0.3673 -0.9301
vn -0.0006 0.3155 -0.9489
vn -0.5502 0.4328 0.7141
vn -0.4911 0.4973 0.7152
vn -0.4348 0.6101 0.6624
vn -0.3600 0.6928 0.6249
vn 0.5388 0.4468 0.7142
vn 0.4747 0.5172 0.7121
vn 0.4087 0.6032 0.6849
vn 0.3654 0.7109 0.6009
vn 0.3538 0.7985 0.4871
vn 0.0021 -1.0000 -0.0084
vn 0.3250 -0.8098 -0.4885
vn -0.1023 -0.4000 -0.9108
vn 0.5262 -0.8503 -0.0045
vn -0.2506 -0.5068 -0.8248
vn 0.0035 0.3731 0.9278
vn 0.0030 -0.2562 0.9666
vn 0.0094 -0.2470 0.9690
vn 0.0014 0.4294 0.9031
vn 0.3379 0.8173 0.4667
vn 0.1299 -0.1603 0.9785
vn 0.2090 -0.0979 -0.9730
vn 0.2275 0.9116 -0.3424
vn -0.2774 0.8646 -0.4190
vn -0.5300 -0.2215 -0.8186
vn -0.5793 -0.1375 0.8034
vn -0.3765 0.8078 0.4535
vn 0.9777 0.2098 0.0038
vn 0.8722 -0.4887 0.0189
vn 0.6629 -0.2344 -0.7111
vn 0.7851 0.1841 -0.5914
vn 0.9999 -0.0117 -0.0082
vn 0.9681 -0.2485 0.0334
vn -0.3184 0.9431 -0.0956
vn -0.5242 -0.0069 -0.8516
vn -0.9428 -0.3332 0.0082
vn -0.5231 0.8522 0.0002
vn 0.8289 -0.5594 -0.0020
vn 0.7036 -0.7106 0.0001
vn 0.6164 -0.3346 -0.7128
vn 0.5750 0.8097 -0.1173
vn -0.4785 -0.8505 -0.2186
vn -0.3741 -0.7841 -0.4952
vn -0.5647 -0.6743 -0.4758
vn -0.0409 -0.9909 0.1280
vn 0.6824 -0.2713 0.6788
vn -0.0017 -0.2792 0.9602
vn 0.6463 -0.3214 0.6921
vn 0.6867 -0.3227 0.6514
vn -0.6039 -0.5490 0.5779
vn -0.5175 -0.5107 0.6866
vn -0.7077 0.0969 0.6999
vn -0.0558 -0.9131 0.4039
vn 0.4636 -0.7717 0.4355
vn -0.2547 0.4341 0.8641
vn -0.6827 -0.1732 0.7099
vn -0.7141 0.1599 -0.6815
vn -0.6205 -0.7815 0.0657
vn -0.5875 -0.7163 -0.3766
vn -0.7357 -0.6037 -0.3069
vn -0.3006 -0.8899 0.3431
vn -0.9964 0.0851 -0.0001
vn -0.2003 -0.9797 -0.0017
vn -0.7310 -0.6576 0.1822
vn -0.8020 -0.5702 -0.1779
vn -0.6459 -0.6740 -0.3585
vn -0.6682 -0.7381 0.0937
vn -0.5071 -0.1680 -0.8453
vn -0.0094 0.5885 -0.8084
vn 0.9917 -0.1286 -0.0091
vn 0.9930 -0.1167 -0.0187
vn -0.9464 0.0862 -0.3112
vn -0.2555 -0.6733 -0.6938
vn 0.7313 -0.0053 -0.6820
vn -0.8947 0.4466 -0.0038
vn -0.9733 0.2296 -0.0063
vn -0.8618 -0.1836 0.4729
vn -0.7564 0.3593 -0.5466
vn 0.5167 0.6875 0.5103
vn 0.6316 -0.6815 0.3697
vn 0.7774 -0.6290 -0.0016
vn 0.9186 -0.3951 -0.0038
vn -0.4108 -0.9117 0.0002
vn -0.8291 -0.5586 -0.0232
vn 0.9214 -0.3491 0.1705
vn -0.7586 -0.4504 0.4709
vn -0.8952 -0.4386 -0.0788
vn -0.9319 0.3627 -0.0113
vn -0.9664 0.2568 -0.0136
vn -0.8091 -0.5876 0.0015
vn -0.6826 -0.7308 0.0001
vn -0.5950 -0.6786 0.4306
vn -0.2511 0.6081 0.7531
vn 0.9959 -0.0899 -0.0019
vn 0.0615 -0.9922 -0.1080
vn 0.2301 -0.5551 -0.7993
vn 0.9342 -0.1586 -0.3195
vn 0.8643 -0.4796 -0.1511
vn 0.7716 -0.3906 -0.5020
vn 0.9012 -0.4299 0.0548
vn 0.9061 -0.4059 0.1188
vn 0.6287 -0.4262 0.6505
vn 0.6748 -0.3306 0.6598
vn 0.6796 -0.4037 -0.6125
vn 0.4684 -0.8648 0.1809
vn 0.2247 0.8570 -0.4637
vn -0.6216 0.1349 -0.7716
vn -0.4867 -0.8646 -0.1246
vn 0.9749 0.0104 -0.2223
vn 0.7558 -0.6193 -0.2129
vn 0.6801 -0.5104 -0.5263
vn -0.4513 -0.7079 0.5433
vn 0.3969 0.5180 0.7577
vn -0.6641 -0.2949 0.6870
vn -0.8115 -0.3821 0.4422
vn 0.6646 -0.7436 -0.0727
vn 0.6068 -0.6579 -0.4462
vn 0.0048 0.7763 -0.6304
vn 0.4487 -0.1368 -0.8832
vn -0.2538 -0.7828 0.5682
vn -0.6776 -0.2872 0.6771
vn 0.0634 -0.8224 0.5654
vn 0.8152 -0.0130 0.5790
vn -0.0088 -0.8441 -0.5361
vn 0.0033 -0.9894 -0.1455
vn 0.0283 0.8312 -0.5553
vn -0.9048 -0.4259 -0.0010
vn -0.6721 -0.2195 -0.7072
vn -0.9960 -0.0889 -0.0075
vn 0.3390 -0.8526 0.3976
vn -0.7956 -0.3122 0.5192
vn -0.3080 0.0497 0.9501
vn 0.4253 -0.6904 0.5853
vn 0.0036 -0.2864 0.9581
vn -0.5917 0.6803 -0.4325
vn 0.4556 -0.8830 -0.1131
vn -0.6892 -0.7231 -0.0464
vn -0.6279 -0.7782 -0.0114
vn -0.8758 -0.4824 -0.0177
vn -0.8776 -0.4782 -0.0322
vn -0.8562 -0.5127 -0.0632
vn -0.7810 -0.6199 -0.0763
vn 0.2813 -0.9550 0.0938
vn 0.6809 -0.7293 -0.0670
vn 0.8782 -0.4767 -0.0385
vn 0.8758 -0.4820 -0.0238
vn 0.8581 -0.5093 -0.0655
vn 0.7790 -0.6218 -0.0807
vn -0.2890 0.0926 0.9528
vn 0.4850 -0.8745 -0.0015
vn 0.2953 0.0967 0.9505
vn -0.0008 -0.3962 0.9182
vn -0.0002 -0.6560 0.7548
vn 0.0011 -0.6545 0.7560
vn -0.0000 -0.3957 0.9184
vn -0.4050 -0.8239 0.3963
vn -0.6043 -0.5143 0.6086
vn 0.5459 -0.5918 0.5931
vn 0.4071 -0.8325 0.3756
vn 0.5243 -0.6533 -0.5463
vn 0.4117 -0.7891 -0.4558
vn -0.6730 -0.2190 -0.7065
vn -0.6775 -0.3152 0.6645
vn -0.3892 -0.8069 -0.4443
vn -0.5699 -0.5723 -0.5896
vn -0.5950 -0.4619 -0.6577
vn -0.6273 -0.4593 0.6289
vn -0.6370 -0.3400 -0.6919
vn -0.6573 -0.3785 0.6517
vn 0.6602 -0.2898 -0.6929
vn 0.6493 -0.3918 0.6518
vn 0.6150 -0.4232 -0.6653
vn 0.6177 -0.4567 0.6402
vn 0.5629 -0.5429 -0.6232
vn 0.5751 -0.5390 0.6154
vn -0.0009 -0.3180 0.9481
vn -0.0009 -0.3301 0.9440
vn -0.0008 -0.3671 0.9302
vn 0.0058 -0.3156 0.9489
vn 0.0032 -0.3299 0.9440
vn 0.0040 -0.3668 0.9303
vn 0.5481 -0.4281 -0.7186
vn 0.4878 -0.4952 -0.7189
vn 0.4323 -0.6081 -0.6658
vn 0.3560 -0.6957 -0.6239
vn 0.2370 -0.7391 -0.6305
vn -0.5370 -0.4407 -0.7193
vn -0.4708 -0.5150 -0.7164
vn -0.4046 -0.6008 -0.6895
vn -0.3609 -0.7087 -0.6063
vn -0.3466 -0.7983 -0.4925
vn 0.0034 1.0000 0.0009
vn -0.5262 0.8504 0.0036
vn -0.5883 0.7219 -0.3644
vn 0.5012 0.7850 -0.3641
vn -0.0583 -0.7606 -0.6465
vn -0.0061 -0.5355 -0.8445
vn 0.0147 -0.9567 0.2908
vn 0.0207 -0.9998 -0.0051
vn 0.0210 -0.9998 -0.0028
vn 0.0213 -0.9998 -0.0004
vn 0.0204 -0.5910 -0.8064
vn 0.0209 -0.4620 -0.8866
vn 0.0135 -0.9998 -0.0111
vn 0.0156 0.3203 -0.9472
vn -0.0004 -0.7371 0.6758
vn 0.0019 -0.7910 0.6118
vn -0.0128 -0.3529 0.9356
vt 0.364373 0.293021
vt 0.345527 0.292888
vt 0.346233 0.288941
vt 0.365735 0.288978
vt 0.121416 0.285453
vt 0.121814 0.123745
vt 0.128672 0.120927
vt 0.128259 0.288305
vt 0.467728 0.124453
vt 0.467595 0.286110
vt 0.462433 0.288939
vt 0.462591 0.121614
vt 0.648713 0.623126
vt 0.807561 0.669321
vt 0.806427 0.668987
vt 0.647615 0.628809
vt 0.597317 0.615464
vt 0.600926 0.621318
vt 0.989856 0.359106
vt 0.989631 0.418426
vt 0.986585 0.417482
vt 0.986562 0.355565
vt 0.974718 0.418432
vt 0.974448 0.359112
vt 0.977744 0.355569
vt 0.977767 0.417485
vt 0.450684 0.002736
vt 0.490463 0.004073
vt 0.489917 0.005739
vt 0.450138 0.004402
vt 0.134936 0.291538
vt 0.345032 0.295802
vt 0.134439 0.295641
vt 0.599208 0.000159
vt 0.604809 0.000936
vt 0.605024 0.003837
vt 0.599360 0.003031
vt 0.470089 0.125416
vt 0.469603 0.287091
vt 0.774475 0.873799
vt 0.773113 0.878275
vt 0.772148 0.876633
vt 0.773170 0.871542
vt 0.591120 0.098858
vt 0.597038 0.001302
vt 0.593430 0.100567
vt 0.790483 0.770507
vt 0.784644 0.809101
vt 0.783305 0.807067
vt 0.789285 0.768393
vt 0.457968 0.117999
vt 0.364634 0.116279
vt 0.364139 0.114588
vt 0.457468 0.115499
vt 0.596457 0.610493
vt 0.648740 0.619792
vt 0.581138 0.284662
vt 0.583415 0.286730
vt 0.117396 0.286405
vt 0.120241 0.124701
vt 0.639631 0.665428
vt 0.801628 0.693252
vt 0.799816 0.695461
vt 0.638520 0.668602
vt 0.711242 0.008505
vt 0.706344 0.105843
vt 0.703838 0.107270
vt 0.710068 0.010803
vt 0.625575 0.856463
vt 0.612888 0.855548
vt 0.611725 0.852845
vt 0.624450 0.854241
vt 0.807755 0.666488
vt 0.690210 0.327509
vt 0.795056 0.739345
vt 0.793992 0.737167
vt 0.589255 0.654993
vt 0.587372 0.657380
vt 0.088119 0.001525
vt 0.265446 0.004533
vt 0.264974 0.006670
vt 0.087645 0.003213
vt 0.891044 0.397110
vt 0.974131 0.425757
vt 0.972299 0.425479
vt 0.888987 0.398765
vt 0.864997 0.496103
vt 0.864239 0.492604
vt 0.864558 0.492762
vt 0.865001 0.494428
vt 0.824540 0.625876
vt 0.818918 0.640412
vt 0.816558 0.641018
vt 0.822110 0.626505
vt 0.001537 0.327197
vt 0.003082 0.082593
vt 0.004542 0.083564
vt 0.002997 0.328168
vt 0.865032 0.492448
vt 0.866362 0.491874
vt 0.865605 0.491938
vt 0.864971 0.492396
vt 0.835222 0.594396
vt 0.832718 0.594743
vt 0.944697 0.518743
vt 0.943315 0.516515
vt 0.797048 0.724612
vt 0.795988 0.722377
vt 0.847739 0.556350
vt 0.845166 0.556513
vt 0.345820 0.117393
vt 0.135362 0.117732
vt 0.134875 0.115956
vt 0.345340 0.114571
vt 0.488281 0.407682
vt 0.086859 0.408448
vt 0.086364 0.406765
vt 0.487787 0.405999
vt 0.943029 0.523350
vt 0.941685 0.521126
vt 0.365995 0.121494
vt 0.346503 0.121463
vt 0.457802 0.292582
vt 0.585210 0.879530
vt 0.586365 0.898410
vt 0.581138 0.899769
vt 0.581138 0.880249
vt 0.640643 0.659643
vt 0.800553 0.693114
vt 0.594808 0.648898
vt 0.986638 0.555099
vt 0.977820 0.555102
vt 0.593701 0.881395
vt 0.593704 0.887464
vt 0.592140 0.888348
vt 0.592140 0.879530
vt 0.979117 0.350928
vt 0.985187 0.350928
vt 0.976218 0.555915
vt 0.988929 0.555916
vt 0.363876 0.295779
vt 0.579547 0.084214
vt 0.579281 0.327657
vt 0.577813 0.328616
vt 0.578079 0.085173
vt 0.695174 0.337112
vt 0.942297 0.523659
vt 0.457304 0.294761
vt 0.624740 0.781745
vt 0.625165 0.848443
vt 0.633415 0.695727
vt 0.630724 0.710482
vt 0.627799 0.742221
vt 0.676645 0.506290
vt 0.694963 0.440069
vt 0.654957 0.593094
vt 0.658468 0.578005
vt 0.666738 0.545493
vt 0.599066 0.100892
vt 0.588850 0.290036
vt 0.348867 0.378304
vt 0.370718 0.378325
vt 0.374017 0.401086
vt 0.350802 0.401066
vt 0.475154 0.378428
vt 0.484138 0.401183
vt 0.104611 0.378087
vt 0.091282 0.400829
vt 0.034557 0.097964
vt 0.033945 0.314502
vt 0.009235 0.323645
vt 0.009916 0.087330
vt 0.489426 0.120665
vt 0.489274 0.293385
vt 0.573337 0.088339
vt 0.573235 0.324680
vt 0.550590 0.315455
vt 0.550703 0.098908
vt 0.529438 0.307157
vt 0.529561 0.107991
vt 0.509346 0.299901
vt 0.509482 0.115144
vt 0.098538 0.292651
vt 0.098992 0.119895
vt 0.077869 0.299096
vt 0.078367 0.114318
vt 0.056728 0.306279
vt 0.057277 0.107109
vt 0.345485 0.315171
vt 0.129938 0.315000
vt 0.346165 0.336054
vt 0.124140 0.335870
vt 0.347277 0.356798
vt 0.115813 0.356600
vt 0.459408 0.315319
vt 0.364770 0.315187
vt 0.462586 0.336192
vt 0.366028 0.336073
vt 0.467763 0.356929
vt 0.367984 0.356818
vt 0.130478 0.094619
vt 0.333581 0.096190
vt 0.602686 0.578768
vt 0.124739 0.074038
vt 0.319935 0.075966
vt 0.614548 0.544415
vt 0.116414 0.053364
vt 0.305063 0.055581
vt 0.632950 0.511246
vt 0.105151 0.031615
vt 0.286476 0.034200
vt 0.655851 0.475140
vt 0.694869 0.439871
vt 0.091592 0.008455
vt 0.581291 0.688228
vt 0.581138 0.722931
vt 0.583992 0.758863
vt 0.591848 0.798188
vt 0.608766 0.846141
vt 0.375565 0.095985
vt 0.459667 0.095709
vt 0.462993 0.075174
vt 0.389594 0.076301
vt 0.468456 0.054571
vt 0.404617 0.056100
vt 0.476300 0.032939
vt 0.422178 0.034126
vt 0.486071 0.009949
vt 0.446769 0.007969
vt 0.974448 0.556233
vt 0.980517 0.556248
vt 0.980665 0.693739
vt 0.980517 0.753059
vt 0.974448 0.753044
vt 0.974596 0.693724
vt 0.867517 0.490981
vt 0.867521 0.490977
vt 0.867615 0.491184
vt 0.867611 0.491186
vt 0.867579 0.491116
vt 0.865758 0.491480
vt 0.867077 0.492029
vt 0.867044 0.492108
vt 0.867586 0.490918
vt 0.867659 0.491080
vt 0.867691 0.491150
vt 0.866707 0.492917
vt 0.865967 0.492609
vt 0.364857 0.523983
vt 0.366243 0.527486
vt 0.346724 0.527643
vt 0.346000 0.524274
vt 0.123523 0.532285
vt 0.129771 0.529518
vt 0.131245 0.694383
vt 0.125233 0.691843
vt 0.466723 0.689494
vt 0.462542 0.692075
vt 0.461895 0.527159
vt 0.466335 0.529735
vt 0.888535 0.694021
vt 0.887885 0.696434
vt 0.808360 0.674378
vt 0.808050 0.672738
vt 0.911894 0.703818
vt 0.909638 0.703998
vt 0.981169 0.046080
vt 0.980458 0.045688
vt 0.979141 0.031148
vt 0.979324 0.030901
vt 0.977557 0.030987
vt 0.977691 0.031215
vt 0.977947 0.045778
vt 0.977079 0.046070
vt 0.450269 0.811983
vt 0.450143 0.810604
vt 0.489577 0.809283
vt 0.490172 0.810711
vt 0.136030 0.526750
vt 0.135891 0.521109
vt 0.345488 0.520464
vt 0.867411 0.491135
vt 0.867412 0.491138
vt 0.867377 0.491123
vt 0.867376 0.491120
vt 0.867357 0.490848
vt 0.867359 0.490846
vt 0.867365 0.490844
vt 0.867355 0.490851
vt 0.469813 0.529034
vt 0.470133 0.688341
vt 0.804899 0.746663
vt 0.805386 0.746420
vt 0.804632 0.747417
vt 0.804254 0.747472
vt 0.867401 0.490879
vt 0.867397 0.490872
vt 0.837004 0.783563
vt 0.837740 0.783184
vt 0.829072 0.793783
vt 0.828474 0.794070
vt 0.458412 0.694732
vt 0.457299 0.698153
vt 0.364170 0.698957
vt 0.365070 0.696384
vt 0.889353 0.692024
vt 0.913417 0.701736
vt 0.867518 0.490981
vt 0.867520 0.490983
vt 0.122321 0.690842
vt 0.117961 0.531415
vt 0.883574 0.712025
vt 0.883168 0.714206
vt 0.803554 0.692350
vt 0.803494 0.690247
vt 0.867359 0.490818
vt 0.867345 0.490828
vt 0.867321 0.490891
vt 0.867317 0.490890
vt 0.820368 0.764205
vt 0.820671 0.764206
vt 0.822012 0.765826
vt 0.821711 0.765827
vt 0.810169 0.670047
vt 0.845819 0.774780
vt 0.846728 0.774467
vt 0.908071 0.717875
vt 0.908354 0.719698
vt 0.866716 0.491821
vt 0.866734 0.491828
vt 0.866340 0.492206
vt 0.866324 0.492204
vt 0.866418 0.492667
vt 0.866718 0.492344
vt 0.866735 0.492383
vt 0.866695 0.492398
vt 0.826681 0.626615
vt 0.827267 0.628372
vt 0.821410 0.643139
vt 0.820983 0.641255
vt 0.003084 0.491197
vt 0.003569 0.490578
vt 0.006655 0.732883
vt 0.005334 0.733400
vt 0.866685 0.492390
vt 0.866765 0.492390
vt 0.867127 0.492181
vt 0.866289 0.493076
vt 0.837390 0.595075
vt 0.838208 0.596600
vt 0.866752 0.492628
vt 0.866738 0.492666
vt 0.850479 0.770184
vt 0.851438 0.769887
vt 0.849965 0.556981
vt 0.851065 0.558149
vt 0.347872 0.696077
vt 0.347689 0.699866
vt 0.137659 0.699993
vt 0.137252 0.696940
vt 0.486874 0.408421
vt 0.486912 0.409480
vt 0.087464 0.410298
vt 0.087905 0.409644
vt 0.866753 0.492656
vt 0.866751 0.492664
vt 0.366339 0.692569
vt 0.348662 0.692837
vt 0.457537 0.524430
vt 0.591223 0.898084
vt 0.587985 0.897240
vt 0.587985 0.879530
vt 0.591823 0.880783
vt 0.884310 0.709868
vt 0.804494 0.689127
vt 0.906696 0.715528
vt 0.976269 0.000306
vt 0.977720 0.000250
vt 0.977738 0.000158
vt 0.976161 0.000191
vt 0.364343 0.520373
vt 0.862666 0.759566
vt 0.862725 0.761669
vt 0.580821 0.729203
vt 0.579455 0.728474
vt 0.578049 0.487320
vt 0.579012 0.487754
vt 0.456820 0.520945
vt 0.816365 0.731211
vt 0.816963 0.730924
vt 0.867519 0.490976
vt 0.867525 0.490991
vt 0.829786 0.757851
vt 0.821252 0.763652
vt 0.805242 0.746860
vt 0.812600 0.739830
vt 0.843425 0.746294
vt 0.840195 0.749336
vt 0.822258 0.730407
vt 0.825907 0.727400
vt 0.838490 0.750935
vt 0.820626 0.732087
vt 0.834611 0.754041
vt 0.817033 0.735555
vt 0.390289 0.882054
vt 0.349995 0.912689
vt 0.273691 0.810496
vt 0.314247 0.785292
vt 0.458107 0.827800
vt 0.442143 0.840759
vt 0.362423 0.744328
vt 0.377665 0.729926
vt 0.433087 0.847829
vt 0.354062 0.752109
vt 0.413651 0.863570
vt 0.336209 0.768085
vt 0.867377 0.491123
vt 0.867610 0.491468
vt 0.867392 0.490866
vt 0.867413 0.491139
vt 0.348998 0.437802
vt 0.350842 0.414634
vt 0.374044 0.414524
vt 0.370843 0.437693
vt 0.483466 0.413373
vt 0.474324 0.436711
vt 0.105587 0.438342
vt 0.091998 0.415217
vt 0.035983 0.718228
vt 0.011182 0.729196
vt 0.008904 0.494589
vt 0.034017 0.503833
vt 0.490100 0.692927
vt 0.489515 0.522600
vt 0.575008 0.725324
vt 0.551943 0.714634
vt 0.551010 0.500264
vt 0.574107 0.490692
vt 0.530623 0.705524
vt 0.529822 0.508654
vt 0.510343 0.698396
vt 0.509643 0.516004
vt 0.100779 0.695652
vt 0.099017 0.525299
vt 0.080003 0.701407
vt 0.078221 0.518987
vt 0.058788 0.708818
vt 0.056915 0.511920
vt 0.131296 0.501692
vt 0.345868 0.501081
vt 0.125377 0.480730
vt 0.346465 0.480171
vt 0.116911 0.459886
vt 0.347494 0.459359
vt 0.365159 0.500993
vt 0.458773 0.500260
vt 0.366331 0.480071
vt 0.461879 0.479255
vt 0.368199 0.459254
vt 0.467002 0.458347
vt 0.332973 0.718478
vt 0.133203 0.722073
vt 0.127588 0.743650
vt 0.319040 0.737791
vt 0.119479 0.765451
vt 0.305950 0.757456
vt 0.108254 0.789261
vt 0.290090 0.778500
vt 0.272527 0.808963
vt 0.095026 0.813923
vt 0.849137 0.752327
vt 0.845555 0.755687
vt 0.841127 0.758579
vt 0.836304 0.761258
vt 0.830616 0.763631
vt 0.823056 0.765649
vt 0.459512 0.718506
vt 0.375781 0.718256
vt 0.462808 0.739200
vt 0.389807 0.738066
vt 0.468254 0.759981
vt 0.404831 0.758425
vt 0.476053 0.781797
vt 0.422359 0.780623
vt 0.486004 0.805172
vt 0.446862 0.807012
vt 0.974448 0.350611
vt 0.974448 0.115741
vt 0.982828 0.115715
vt 0.984835 0.350168
vt 0.867432 0.490828
vt 0.867584 0.490917
vt 0.865907 0.492577
vt 0.586645 0.880216
vt 0.587668 0.897497
vt 0.786818 0.809470
vt 0.776535 0.874570
vt 0.799238 0.724962
vt 0.797195 0.739740
vt 0.792614 0.770949
vt 0.773600 0.879212
vt 0.625340 0.858689
vt 0.611630 0.857414
vt 0.449690 0.001498
vt 0.489673 0.002696
vt 0.580821 0.085162
vt 0.580691 0.326928
vt 0.000159 0.326409
vt 0.002094 0.083837
vt 0.272962 0.813483
vt 0.091693 0.818942
vt 0.272956 0.814719
vt 0.091787 0.820404
vt 0.088929 0.000159
vt 0.264829 0.000288
vt 0.975185 0.753411
vt 0.982057 0.753376
vt 0.982057 0.888723
vt 0.974448 0.888696
vt 0.981333 0.949002
vt 0.975263 0.948981
vt 0.999841 0.717632
vt 0.983238 0.717652
vt 0.983520 0.679400
vt 0.999315 0.679343
vt 0.999625 0.721431
vt 0.982355 0.720243
vt 0.983469 0.558585
vt 0.998866 0.559087
vt 0.999841 0.556324
vt 0.980982 0.556233
s 1
f 6/1/1 7/2/2 38/3/3 40/4/4
f 3/5/5 1/6/6 34/7/7 33/8/8
f 2/9/9 4/10/10 37/11/11 36/12/12
f 12/13/13 10/14/14 41/15/15 44/16/16
f 8/17/17 12/13/13 44/16/16 39/18/18
f 26/19/19 23/20/20 46/21/21 47/22/22
f 27/23/23 29/24/24 50/25/25 49/26/26
f 60/27/27 61/28/28 155/29/29 154/30/30
f 3/31/5 7/2/2 70/32/31 65/33/32
f 53/34/33 31/35/34 104/36/35 147/37/36
f 4/10/10 2/9/9 68/38/37 69/39/38
f 13/40/39 58/41/40 152/42/41 77/43/42
f 51/44/43 53/45/33 147/37/36 146/46/44
f 16/47/45 17/48/46 80/49/47 85/50/48
f 2/51/9 5/52/49 67/53/50 68/54/37
f 12/13/13 8/17/17 72/55/51 74/56/52
f 52/57/53 51/44/43 146/46/44 145/58/54
f 1/6/6 3/5/5 65/59/32 66/60/55
f 11/61/56 9/62/57 76/63/58 73/64/59
f 29/65/60 27/66/61 100/67/62 101/68/63
f 59/69/64 60/70/27 154/71/30 153/72/65
f 10/14/14 12/13/13 74/56/52 75/73/66
f 27/66/61 28/74/67 100/67/62
f 15/75/68 16/47/45 85/50/48 83/76/69
f 58/41/40 59/69/64 153/72/65 152/42/41
f 5/77/49 11/61/56 73/64/59 67/78/50
f 64/79/70 32/80/71 139/81/72 158/82/73
f 23/83/74 26/84/75 98/85/76 97/86/77
f 54/87/78 57/88/79 150/89/80 149/90/81
f 21/91/82 22/92/83 89/93/84 93/94/85
f 63/95/86 64/96/70 158/97/73 157/98/87
f 56/99/88 18/100/89 88/101/90 151/102/91
f 20/103/92 21/91/82 93/94/85 92/104/93
f 26/84/75 25/105/94 99/106/95 98/85/76
f 14/107/96 15/75/68 83/76/69 82/108/97
f 57/88/79 56/99/88 151/102/91 150/89/80
f 19/109/98 20/103/92 92/104/93 91/110/99
f 8/111/17 1/112/6 66/113/55 72/114/51
f 62/115/100 63/116/86 157/117/87 156/118/101
f 25/105/94 55/119/102 148/120/103 99/106/95
f 35/121/104 36/12/12 37/11/11 40/4/4
f 39/122/105 35/121/104 40/4/4 38/3/3
f 34/7/7 39/122/105 38/3/3 33/8/8
f 4/123/10 6/1/1 40/4/4 37/11/11
f 7/2/2 3/31/5 33/8/8 38/3/3
f 5/52/49 2/51/9 36/12/12 35/121/104
f 1/112/6 8/111/17 39/122/105 34/7/7
f 8/124/106 5/125/107 35/126/108 39/127/108
f 43/128/109 44/16/16 41/15/15 42/129/110
f 35/130/111 39/18/18 44/16/16 43/128/109
f 10/14/14 9/62/57 42/129/110 41/15/15
f 9/62/57 11/61/56 43/128/109 42/129/110
f 11/61/56 5/77/49 35/130/111 43/128/109
f 47/22/22 46/21/21 49/26/26 50/25/25
f 46/21/21 45/131/112 48/132/113 49/26/26
f 24/133/114 28/134/115 48/135/113 45/136/112
f 29/137/24 26/138/19 47/22/22 50/25/25
f 28/139/115 27/23/23 49/26/26 48/132/113
f 23/20/20 24/140/114 45/131/112 46/21/21
f 18/100/89 19/109/98 91/110/99 88/101/90
f 7/2/2 6/1/1 71/141/116 70/32/31
f 9/62/57 14/107/96 82/108/97 76/63/58
f 61/142/28 62/143/100 156/144/101 155/145/29
f 24/146/117 23/83/74 97/86/77
f 31/35/34 29/65/60 101/68/63 104/36/35
f 55/147/102 54/87/78 149/90/81 148/120/103
f 22/92/83 10/14/14 75/73/66 89/93/84
f 6/1/1 4/123/10 69/148/38 71/141/116
f 17/48/46 13/40/39 77/43/42 80/49/47
f 86/149/118 80/49/47 77/43/42 78/150/119
f 73/64/59 76/63/58 82/108/97 79/151/120
f 79/151/120 82/108/97 83/76/69 81/152/121
f 81/152/121 83/76/69 85/50/48 84/153/122
f 84/153/122 85/50/48 80/49/47 86/149/118
f 91/110/99 90/154/123 87/155/124 88/101/90
f 75/73/66 74/56/52 94/156/125 89/93/84
f 89/93/84 94/156/125 95/157/126 93/94/85
f 93/94/85 95/157/126 96/158/127 92/104/93
f 92/104/93 96/158/127 90/154/123 91/110/99
f 88/101/90 87/155/124 24/146/117 97/86/77
f 88/101/90 97/86/77 98/85/76 99/106/95
f 101/68/63 100/67/62 103/159/128 104/36/35
f 100/67/62 28/74/67 102/160/129 103/159/128
f 117/161/130 110/162/130 108/163/131 105/164/132
f 110/162/130 111/165/133 107/166/134 108/163/131
f 126/167/135 117/161/130 105/164/132 106/168/136
f 113/169/137 126/170/135 106/171/136 114/172/138
f 132/173/139 123/174/140 69/39/38 68/38/37
f 116/175/141 107/176/134 111/177/133 115/178/142
f 115/178/142 111/177/133 125/179/143 134/180/144
f 134/180/144 125/179/143 124/181/145 133/182/146
f 133/182/146 124/181/145 123/174/140 132/173/139
f 66/60/55 65/59/32 112/183/147 129/184/148
f 129/184/148 112/183/147 128/185/149 130/186/150
f 130/186/150 128/185/149 127/187/151 131/188/152
f 131/188/152 127/187/151 126/170/135 113/169/137
f 65/33/32 70/32/31 109/189/153 112/190/147
f 112/190/147 109/189/153 119/191/154 128/192/149
f 128/192/149 119/191/154 118/193/155 127/194/151
f 127/194/151 118/193/155 117/161/130 126/167/135
f 71/141/116 69/148/38 123/195/140 120/196/156
f 120/196/156 123/195/140 124/197/145 121/198/154
f 121/198/154 124/197/145 125/199/143 122/200/155
f 122/200/155 125/199/143 111/165/133 110/162/130
f 70/32/31 71/141/116 120/196/156 109/189/153
f 109/189/153 120/196/156 121/198/154 119/191/154
f 119/191/154 121/198/154 122/200/155 118/193/155
f 118/193/155 122/200/155 110/162/130 117/161/130
f 87/155/124 102/160/129 28/74/67 24/146/117
f 72/114/51 66/113/55 129/201/148 135/202/157
f 72/55/51 135/203/157 94/156/125 74/56/52
f 130/204/150 136/205/158 135/202/157 129/201/148
f 95/157/126 94/156/125 135/203/157 136/206/158
f 131/207/152 137/208/159 136/205/158 130/204/150
f 96/158/127 95/157/126 136/206/158 137/209/159
f 113/210/137 138/211/160 137/208/159 131/207/152
f 90/154/123 96/158/127 137/209/159 138/212/160
f 87/155/124 90/154/123 138/212/160 139/213/72
f 114/214/138 139/81/72 138/211/160 113/210/137
f 67/78/50 73/64/59 79/151/120 140/215/161
f 81/152/121 141/216/162 140/215/161 79/151/120
f 84/153/122 142/217/163 141/216/162 81/152/121
f 86/149/118 143/218/164 142/217/163 84/153/122
f 144/219/165 143/218/164 86/149/118 78/150/119
f 67/53/50 140/220/161 132/221/139 68/54/37
f 133/222/146 132/221/139 140/220/161 141/223/162
f 134/224/144 133/222/146 141/223/162 142/225/163
f 115/226/142 134/224/144 142/225/163 143/227/164
f 116/228/141 115/226/142 143/227/164 144/229/165
f 104/36/35 103/159/128 146/46/44 147/37/36
f 103/159/128 102/160/129 145/58/54 146/46/44
f 88/101/90 99/106/95 148/120/103 149/90/81
f 88/101/90 149/90/81 150/89/80 151/102/91
f 144/219/165 78/150/119 153/72/65 154/71/30
f 78/150/119 77/43/42 152/42/41 153/72/65
f 155/29/29 116/228/141 144/229/165 154/30/30
f 156/144/101 107/176/134 116/175/141 155/145/29
f 106/168/136 105/164/132 108/163/131 107/166/134 156/118/101 157/117/87
f 114/172/138 106/171/136 157/98/87 158/97/73
f 139/81/72 114/214/138 158/82/73
f 28/230/166 24/231/166 23/232/166 26/233/166 29/234/166 27/235/166
f 52/236/53 30/237/167 31/238/34 53/239/33 51/240/43
f 57/88/79 54/241/78 18/100/89 56/99/88
f 54/241/78 55/242/102 25/243/94 18/100/89
f 30/237/167 28/244/168 27/245/169 29/246/60 31/238/34
f 26/247/75 23/248/170 18/100/89 25/243/94
f 164/249/171 197/250/172 195/251/173 165/252/174
f 161/253/175 190/254/176 191/255/177 159/256/178
f 160/257/179 193/258/180 194/259/181 162/260/182
f 170/261/183 201/262/184 198/263/185 168/264/186
f 166/265/187 196/266/188 201/262/184 170/261/183
f 184/267/189 204/268/190 203/269/191 181/270/192
f 185/271/193 206/272/194 207/273/195 187/274/196
f 217/275/197 313/276/198 314/277/199 218/278/200
f 161/279/175 222/280/201 227/281/202 165/252/174
f 186/282/203 258/283/204 254/284/205 182/285/206
f 210/286/207 306/287/208 263/288/209 189/289/210
f 162/260/182 226/290/211 225/291/212 160/257/179
f 171/292/213 234/293/214 311/294/215 215/295/216
f 208/296/217 305/297/218 306/287/208 210/286/207
f 174/298/219 242/299/220 237/300/221 175/301/222
f 160/302/179 225/303/212 224/304/223 163/305/224
f 170/261/183 231/306/225 229/307/226 166/265/187
f 209/308/227 304/309/228 305/297/218 208/296/217
f 159/256/178 223/310/229 222/311/201 161/253/175
f 169/312/230 230/313/231 233/314/232 167/315/233
f 187/316/234 260/317/235 259/318/236 185/319/237
f 216/320/238 312/321/239 313/322/198 217/323/197
f 168/264/186 232/324/240 231/306/225 170/261/183
f 185/319/237 259/318/236 258/283/204 186/282/203
f 173/325/241 240/326/242 242/299/220 174/298/219
f 215/295/216 311/294/215 312/321/239 216/320/238
f 163/327/243 224/328/244 230/313/231 169/312/230
f 181/329/245 255/330/246 256/331/247 184/332/248
f 211/333/249 308/334/250 309/335/251 214/336/252
f 179/337/253 250/338/254 246/339/255 180/340/256
f 220/341/257 316/342/258 317/343/259 221/344/260
f 213/345/261 310/346/262 245/347/263 176/348/264
f 178/349/265 249/350/266 250/338/254 179/337/253
f 184/332/248 256/331/247 257/351/267 183/352/268
f 172/353/269 239/354/270 240/326/242 173/325/241
f 214/336/252 309/335/251 310/346/262 213/345/261
f 177/355/271 248/356/272 249/350/266 178/349/265
f 166/357/273 229/358/274 223/359/229 159/360/178
f 219/361/275 315/362/276 316/363/258 220/364/257
f 183/352/268 257/351/267 307/365/277 212/366/278
f 192/367/279 197/250/172 194/259/181 193/258/180
f 196/368/280 195/251/173 197/250/172 192/367/279
f 191/255/177 190/254/176 195/251/173 196/368/280
f 162/369/182 194/259/181 197/250/172 164/249/171
f 165/252/174 195/251/173 190/254/176 161/279/175
f 163/305/224 192/367/279 193/258/180 160/302/179
f 159/360/178 191/255/177 196/368/280 166/357/273
f 166/370/281 196/371/281 192/372/281 163/373/281
f 200/374/282 199/375/283 198/263/185 201/262/184
f 192/376/284 200/374/282 201/262/184 196/266/188
f 168/264/186 198/263/185 199/375/283 167/315/233
f 167/315/233 199/375/283 200/374/282 169/312/230
f 169/312/230 200/374/282 192/376/284 163/327/243
f 204/268/190 207/273/195 206/272/194 203/269/191
f 203/269/191 206/272/194 205/377/285 202/378/286
f 182/379/287 202/378/286 205/377/285 186/380/288
f 187/274/196 207/273/195 204/268/190 184/267/189
f 186/380/288 205/377/285 206/272/194 185/271/193
f 181/270/192 203/269/191 202/378/286 182/379/287
f 176/348/264 245/347/263 248/356/272 177/355/271
f 165/252/174 227/281/202 228/381/289 164/249/171
f 167/382/233 233/383/232 239/354/270 172/353/269
f 218/384/200 314/385/199 315/386/276 219/387/275
f 182/285/206 254/284/205 255/330/246 181/329/245
f 189/289/210 263/288/209 260/317/235 187/316/234
f 212/366/278 307/365/277 308/334/250 211/333/249
f 180/340/256 246/339/255 232/324/240 168/264/186
f 164/249/171 228/381/289 226/388/211 162/369/182
f 175/389/222 237/390/221 234/293/214 171/292/213
f 188/391/290 261/392/291 304/309/228 209/308/227
f 243/393/292 235/394/293 234/395/214 237/396/221
f 230/397/294 236/398/295 239/399/270 233/400/232
f 236/398/295 238/401/296 240/402/242 239/399/270
f 238/401/296 241/403/297 242/404/220 240/402/242
f 241/403/297 243/393/292 237/396/221 242/404/220
f 248/405/272 245/406/263 244/407/298 247/408/299
f 232/409/240 246/410/255 251/411/300 231/412/301
f 246/410/255 250/413/254 252/414/302 251/411/300
f 250/413/254 249/415/266 253/416/303 252/414/302
f 249/415/266 248/405/272 247/408/299 253/416/303
f 245/347/263 255/330/246 254/417/304 244/418/298
f 245/347/263 257/351/267 256/331/247 255/330/246
f 260/317/235 263/288/209 262/419/305 259/318/236
f 259/318/236 262/419/305 261/392/291 258/420/306
f 276/421/307 264/422/308 267/423/309 269/424/310
f 269/424/310 267/423/309 266/425/311 270/426/312
f 285/427/313 265/428/314 264/422/308 276/421/307
f 272/429/315 273/430/316 265/431/314 285/432/313
f 291/433/317 225/291/212 226/290/211 282/434/318
f 275/435/319 274/436/320 270/437/312 266/438/311
f 274/436/320 293/439/321 284/440/322 270/437/312
f 293/439/321 292/441/323 283/442/324 284/440/322
f 292/441/323 291/433/317 282/434/318 283/442/324
f 223/310/229 288/443/325 271/444/326 222/311/201
f 288/443/325 289/445/327 287/446/328 271/444/326
f 289/445/327 290/447/329 286/448/330 287/446/328
f 290/447/329 272/429/315 285/432/313 286/448/330
f 222/280/201 271/449/326 268/450/331 227/281/202
f 271/449/326 287/451/328 278/452/332 268/450/331
f 287/451/328 286/453/330 277/454/333 278/452/332
f 286/453/330 285/427/313 276/421/307 277/454/333
f 228/381/289 279/455/334 282/456/318 226/388/211
f 279/455/334 280/457/335 283/458/324 282/456/318
f 280/457/335 281/459/336 284/460/322 283/458/324
f 281/459/336 269/424/310 270/426/312 284/460/322
f 227/281/202 268/450/331 279/455/334 228/381/289
f 268/450/331 278/452/332 280/457/335 279/455/334
f 278/452/332 277/454/333 281/459/336 280/457/335
f 277/454/333 276/421/307 269/424/310 281/459/336
f 244/418/298 254/417/304 258/420/306 261/392/291
f 229/358/274 294/461/337 288/462/325 223/359/229
f 229/358/274 231/412/301 251/411/300 294/461/337
f 289/463/327 288/462/325 294/461/337 295/464/338
f 252/414/302 295/464/338 294/461/337 251/411/300
f 290/465/329 289/463/327 295/464/338 296/466/339
f 253/416/303 296/466/339 295/464/338 252/414/302
f 272/467/315 290/465/329 296/466/339 297/468/340
f 247/408/299 297/468/340 296/466/339 253/416/303
f 244/407/298 298/469/341 297/468/340 247/408/299
f 273/470/316 272/467/315 297/468/340 298/469/341
f 224/471/223 299/472/342 236/398/295 230/397/294
f 238/401/296 236/398/295 299/472/342 300/473/343
f 241/403/297 238/401/296 300/473/343 301/474/344
f 243/393/292 241/403/297 301/474/344 302/475/345
f 303/476/346 235/394/293 243/393/292 302/475/345
f 224/304/223 225/303/212 291/477/317 299/478/342
f 292/479/323 300/480/343 299/478/342 291/477/317
f 293/481/321 301/482/344 300/480/343 292/479/323
f 274/483/320 302/484/345 301/482/344 293/481/321
f 275/485/319 303/486/346 302/484/345 274/483/320
f 263/288/209 306/287/208 305/297/218 262/419/305
f 262/419/305 305/297/218 304/309/228 261/392/291
f 245/347/263 308/334/250 307/365/277 257/351/267
f 245/347/263 310/346/262 309/335/251 308/334/250
f 303/476/346 313/322/198 312/321/239 235/394/293
f 235/394/293 312/321/239 311/294/215 234/395/214
f 314/277/199 313/276/198 303/486/346 275/485/319
f 315/386/276 314/385/199 275/435/319 266/438/311
f 265/428/314 316/363/258 315/362/276 266/425/311 267/423/309 264/422/308
f 273/430/316 317/343/259 316/342/258 265/431/314
f 186/487/347 185/488/347 187/274/196 184/267/189 181/489/347 182/490/347
f 209/308/227 208/296/217 210/286/207 189/289/210 188/391/290
f 214/336/252 213/345/261 176/348/264 211/333/249
f 211/333/249 176/348/264 183/352/268 212/366/278
f 188/391/290 189/289/210 187/316/234 185/491/348 186/492/349
f 184/332/248 183/352/268 176/348/264 181/493/350
f 5/125/107 8/124/106 166/494/351 163/495/351
f 9/62/57 10/14/14 168/264/186 167/315/233
f 13/40/39 17/48/46 175/496/222 171/497/213
f 14/107/96 9/62/57 167/315/233 172/498/269
f 15/75/68 14/107/96 172/498/269 173/499/241
f 16/47/45 15/75/68 173/499/241 174/500/219
f 17/48/46 16/47/45 174/500/219 175/496/222
f 10/14/14 22/92/83 180/340/256 168/264/186
f 19/109/98 18/100/89 176/348/264 177/355/271
f 20/103/92 19/109/98 177/355/271 178/349/265
f 21/91/82 20/103/92 178/349/265 179/337/253
f 22/92/83 21/91/82 179/337/253 180/340/256
f 59/69/64 58/41/40 215/501/216 216/502/238
f 60/70/27 59/69/64 216/502/238 217/503/197
f 58/41/40 13/40/39 171/497/213 215/501/216
f 61/28/28 60/27/27 217/504/197 218/505/200
f 62/143/100 61/142/28 218/506/200 219/507/275
f 63/116/86 62/115/100 219/361/275 220/364/257
f 64/96/70 63/95/86 220/508/257 221/509/260
f 28/244/168 30/237/167 188/391/290 186/492/349
f 18/100/89 23/248/170 181/493/350 176/348/264
f 273/470/316 298/469/341 318/510/352 317/511/259
f 317/511/259 318/510/352 319/512/353 221/513/260
f 32/80/71 64/79/70 221/514/260 319/515/353
f 258/516/354 254/517/354 255/518/355 259/519/355
f 255/518/355 26/520/356 29/521/356 259/519/355
f 229/522/357 224/523/358 230/524/359 231/525/359
f 166/526/360 163/527/360 224/523/358 229/522/357
f 231/525/359 230/524/359 233/528/361 232/529/362
f 10/530/363 232/529/362 233/528/361 9/531/363
